<?xml version="1.0" encoding="UTF-8"?>
<!DOCTYPE svg PUBLIC "-//W3C//DTD SVG 1.1//EN" "http://www.w3.org/Graphics/SVG/1.1/DTD/svg11.dtd">
<svg xmlns="http://www.w3.org/2000/svg" version="1.1" width="583px" height="80px" style="shape-rendering:geometricPrecision; text-rendering:geometricPrecision; image-rendering:optimizeQuality; fill-rule:evenodd; clip-rule:evenodd" xmlns:xlink="http://www.w3.org/1999/xlink">
<g><path style="opacity:0.008" fill="#1e4d6c" d="M 241.5,0.5 C 241.5,0.166667 241.5,-0.166667 241.5,-0.5C 247.833,-0.5 254.167,-0.5 260.5,-0.5C 254.355,0.490164 248.022,0.823497 241.5,0.5 Z"/></g>
<g><path style="opacity:0.008" fill="#1e4d6c" d="M 315.5,-0.5 C 321.833,-0.5 328.167,-0.5 334.5,-0.5C 334.5,-0.166667 334.5,0.166667 334.5,0.5C 327.978,0.823497 321.645,0.490164 315.5,-0.5 Z"/></g>
<g><path style="opacity:0.008" fill="#1e4d6c" d="M 227.5,1.5 C 231.97,0.513877 236.637,0.180544 241.5,0.5C 237.03,1.48612 232.363,1.81946 227.5,1.5 Z"/></g>
<g><path style="opacity:0.008" fill="#1e4d6c" d="M 334.5,1.5 C 334.5,1.16667 334.5,0.833333 334.5,0.5C 353.167,0.833333 353.167,1.16667 334.5,1.5 Z"/></g>
<g><path style="opacity:0.008" fill="#1e4d6c" d="M 227.5,1.5 C 224.024,2.64327 220.358,2.80993 216.5,2C 220.152,1.50137 223.818,1.3347 227.5,1.5 Z"/></g>
<g><path style="opacity:0.008" fill="#1e4d6c" d="M 360.5,2.5 C 356.818,2.6653 353.152,2.49863 349.5,2C 353.358,1.19007 357.024,1.35673 360.5,2.5 Z"/></g>
<g><path style="opacity:0.008" fill="#1e4d6c" d="M 360.5,2.5 C 363.518,2.33537 366.518,2.50204 369.5,3C 366.304,3.80451 363.304,3.63784 360.5,2.5 Z"/></g>
<g><path style="opacity:1" fill="#f07a28" d="M 280.5,4.5 C 287.543,4.28032 294.543,4.61365 301.5,5.5C 302.483,6.85027 303.816,7.85027 305.5,8.5C 306.246,9.73619 306.579,11.0695 306.5,12.5C 305.508,12.3284 304.842,12.6618 304.5,13.5C 297.48,13.4985 290.48,13.1652 283.5,12.5C 283.158,11.6618 282.492,11.3284 281.5,11.5C 279.9,10.3556 278.233,9.18889 276.5,8C 277.605,6.41441 278.939,5.24775 280.5,4.5 Z"/></g>
<g><path style="opacity:0.999" fill="#094681" d="M 334.5,1.5 C 353.41,3.12641 372.41,5.29308 391.5,8C 404.785,10.0893 417.785,13.256 430.5,17.5C 432.292,18.3091 434.292,18.8091 436.5,19C 449.508,19.3968 462.508,19.8968 475.5,20.5C 476.263,21.2679 477.263,21.7679 478.5,22C 489.828,22.4999 501.162,22.6665 512.5,22.5C 525.358,22.4425 538.025,23.1092 550.5,24.5C 550.5,30.8333 550.5,37.1667 550.5,43.5C 547.911,43.461 545.911,44.461 544.5,46.5C 543.167,47.1667 541.833,47.8333 540.5,48.5C 536.5,48.8333 536.5,49.1667 540.5,49.5C 538.735,50.4614 536.735,50.7947 534.5,50.5C 533.551,49.8476 532.385,49.5143 531,49.5C 524.858,50.4554 518.691,51.122 512.5,51.5C 515.083,50.7761 517.749,49.9428 520.5,49C 518.167,48.6667 515.833,48.3333 513.5,48C 518.498,47.5724 518.665,46.7391 514,45.5C 503.735,46.8288 493.569,46.8288 483.5,45.5C 492.349,45.8264 501.016,45.493 509.5,44.5C 510.833,39.5 510.833,34.5 509.5,29.5C 459.472,28.6081 409.305,28.2748 359,28.5C 349.274,27.9522 339.774,29.1188 330.5,32C 329.058,32.3768 328.058,33.2101 327.5,34.5C 321.707,36.7825 315.707,38.4491 309.5,39.5C 307.883,38.962 306.216,38.6287 304.5,38.5C 303.295,36.8624 301.962,36.5291 300.5,37.5C 299.209,37.7373 298.209,37.404 297.5,36.5C 298.239,36.631 298.906,36.4643 299.5,36C 296.264,34.2138 292.93,32.7138 289.5,31.5C 289.5,30.8333 289.167,30.5 288.5,30.5C 282.537,29.1702 276.204,28.5036 269.5,28.5C 263.167,28.8333 256.833,29.1667 250.5,29.5C 251.602,30.1757 252.602,30.8423 253.5,31.5C 252.448,31.3505 251.448,31.5172 250.5,32C 252.116,32.6152 253.449,33.6152 254.5,35C 253.151,35.7724 252.318,36.9391 252,38.5C 247.256,37.9359 242.423,37.9359 237.5,38.5C 237.5,38.1667 237.5,37.8333 237.5,37.5C 231.563,36.4911 224.229,36.1577 215.5,36.5C 214.081,35.5489 212.415,35.2155 210.5,35.5C 210.5,34.1667 210.5,32.8333 210.5,31.5C 221.52,31.8321 232.52,31.4988 243.5,30.5C 243.376,29.8933 243.043,29.56 242.5,29.5C 237.167,29.5 231.833,29.5 226.5,29.5C 226.167,29.5 225.833,29.5 225.5,29.5C 214.5,29.5 203.5,29.5 192.5,29.5C 192.167,29.5 191.833,29.5 191.5,29.5C 190.167,29.5 188.833,29.5 187.5,29.5C 187.167,29.5 186.833,29.5 186.5,29.5C 186.167,29.5 185.833,29.5 185.5,29.5C 185.167,29.5 184.833,29.5 184.5,29.5C 181.833,29.5 179.167,29.5 176.5,29.5C 175.809,33.8993 175.142,38.3993 174.5,43C 175.252,43.6708 175.586,44.5041 175.5,45.5C 174.503,45.5299 173.836,45.0299 173.5,44C 172.804,40.8748 171.804,37.8748 170.5,35C 170.833,34.6667 171.167,34.3333 171.5,34C 170.5,33 169.5,32 168.5,31C 169.308,30.6924 169.975,30.1924 170.5,29.5C 195.493,28.6668 220.493,28.1668 245.5,28C 245.167,27.6667 244.833,27.3333 244.5,27C 247.119,26.8485 249.453,26.0152 251.5,24.5C 252.478,24.9767 253.311,25.6433 254,26.5C 254.417,25.244 255.25,24.5774 256.5,24.5C 256.611,25.1174 256.944,25.6174 257.5,26C 286.926,29.4532 315.926,27.4532 344.5,20C 345.354,18.9783 346.354,18.1449 347.5,17.5C 348.833,16.1667 348.833,14.8333 347.5,13.5C 336.906,9.1569 325.906,7.32356 314.5,8C 318.04,8.32866 319.206,10.162 318,13.5C 315.022,15.3824 311.855,16.8824 308.5,18C 298.957,20.3423 289.29,21.8423 279.5,22.5C 279.5,22.1667 279.5,21.8333 279.5,21.5C 280.552,21.6495 281.552,21.4828 282.5,21C 270.174,20.9457 258.174,18.9457 246.5,15C 245.663,13.9887 245.33,12.8221 245.5,11.5C 243.5,11.5 241.5,11.5 239.5,11.5C 242.962,10.5184 246.629,10.185 250.5,10.5C 249.316,11.6879 249.316,12.8545 250.5,14C 253.726,15.1989 257.059,15.6989 260.5,15.5C 264.931,15.7693 269.265,15.436 273.5,14.5C 276.734,13.424 280.068,12.7573 283.5,12.5C 290.48,13.1652 297.48,13.4985 304.5,13.5C 308.495,14.1173 311.828,12.9506 314.5,10C 311.452,7.0382 307.785,5.5382 303.5,5.5C 302.833,5.5 302.167,5.5 301.5,5.5C 294.543,4.61365 287.543,4.28032 280.5,4.5C 277.171,4.21528 274.171,4.88195 271.5,6.5C 270.9,7.90018 269.9,8.90018 268.5,9.5C 265.833,9.5 263.167,9.5 260.5,9.5C 259.833,9.5 259.167,9.5 258.5,9.5C 260.503,7.01812 263.169,6.01812 266.5,6.5C 266.5,5.16667 266.5,3.83333 266.5,2.5C 249.814,2.74434 233.147,3.41101 216.5,4.5C 255.6,0.497121 294.933,-0.502879 334.5,1.5 Z M 288.5,30.5 C 289.167,30.5 289.5,30.8333 289.5,31.5C 287.5,31.5 285.5,31.5 283.5,31.5C 282.391,30.71 281.058,30.21 279.5,30C 282.507,29.6987 285.507,29.8654 288.5,30.5 Z M 369.5,30.5 C 368.833,30.5 368.167,30.5 367.5,30.5C 365.883,31.038 364.216,31.3713 362.5,31.5C 358.019,30.3516 353.352,30.1849 348.5,31C 351.365,31.1829 354.031,31.6829 356.5,32.5C 353.843,32.9348 351.509,33.9348 349.5,35.5C 347.447,35.4021 345.78,36.0687 344.5,37.5C 339.354,38.7015 334.354,40.0348 329.5,41.5C 327.265,41.2053 325.265,41.5386 323.5,42.5C 320.183,42.219 317.017,42.219 314,42.5C 312.378,41.9011 310.878,41.2344 309.5,40.5C 312.881,40.5405 316.214,40.2071 319.5,39.5C 319.56,40.0431 319.893,40.3764 320.5,40.5C 328.839,35.5536 337.839,32.7203 347.5,32C 344.854,31.5026 342.187,31.3359 339.5,31.5C 345.608,30.0773 351.941,29.4107 358.5,29.5C 362.349,29.5013 366.016,29.8346 369.5,30.5 Z M 383.5,29.5 C 403.34,29.1696 423.007,29.5029 442.5,30.5C 430.655,30.1717 418.988,30.5051 407.5,31.5C 406.391,31.4431 405.391,31.1098 404.5,30.5C 397.313,30.8245 390.313,30.4912 383.5,29.5 Z M 177.5,31.5 C 178.787,32.8714 179.453,34.7047 179.5,37C 179.167,38.8333 178.833,40.6667 178.5,42.5C 177.511,38.8927 177.177,35.226 177.5,31.5 Z M 180.5,31.5 C 187.735,31.9693 195.068,31.9693 202.5,31.5C 202.669,46.1516 203.169,46.1516 204,31.5C 204.499,35.4862 204.666,39.4862 204.5,43.5C 196.5,43.5 188.5,43.5 180.5,43.5C 180.5,39.5 180.5,35.5 180.5,31.5 Z M 265.5,32.5 C 270.877,32.002 276.877,31.6686 283.5,31.5C 288.274,32.5389 292.941,34.2055 297.5,36.5C 298.209,37.404 299.209,37.7373 300.5,37.5C 300.5,38.1667 300.833,38.5 301.5,38.5C 297.018,39.3255 292.351,39.8255 287.5,40C 293.833,40.6667 300.167,40.6667 306.5,40C 305.584,39.7216 304.918,39.2216 304.5,38.5C 306.216,38.6287 307.883,38.962 309.5,39.5C 309.5,39.8333 309.5,40.1667 309.5,40.5C 299.314,42.0356 289.314,41.7023 279.5,39.5C 288.81,39.3281 288.81,38.8281 279.5,38C 274.924,35.8765 270.257,34.0431 265.5,32.5 Z M 408.5,36.5 C 408.5,36.1667 408.5,35.8333 408.5,35.5C 408.312,33.8967 408.812,32.5634 410,31.5C 410.825,35.2113 410.659,38.878 409.5,42.5C 408.534,40.604 408.201,38.604 408.5,36.5 Z M 433.5,41.5 C 426.576,43.4633 419.243,44.1299 411.5,43.5C 411.5,39.5 411.5,35.5 411.5,31.5C 418.5,31.5 425.5,31.5 432.5,31.5C 432.187,35.0419 432.521,38.3752 433.5,41.5 Z M 435.5,41.5 C 435.5,42.1667 435.833,42.5 436.5,42.5C 436.44,43.0431 436.107,43.3764 435.5,43.5C 434.818,42.7573 434.151,42.0906 433.5,41.5C 434.167,28.1667 434.833,28.1667 435.5,41.5 Z M 481.5,42.5 C 481.5,41.8333 481.5,41.1667 481.5,40.5C 481.183,37.4281 481.516,34.4281 482.5,31.5C 482.833,33.3333 483.167,35.1667 483.5,37C 483.453,39.2953 482.787,41.1286 481.5,42.5 Z M 484.5,31.5 C 492.289,31.6989 499.622,31.6989 506.5,31.5C 507.248,34.4973 507.915,37.4973 508.5,40.5C 508.167,41.1667 507.833,41.8333 507.5,42.5C 499.862,43.4975 492.196,43.8308 484.5,43.5C 484.5,39.5 484.5,35.5 484.5,31.5 Z M 206.5,34.5 C 206.264,37.6085 206.597,40.6085 207.5,43.5C 206.235,42.4855 205.569,40.9855 205.5,39C 205.508,37.2933 205.842,35.7933 206.5,34.5 Z M 300.5,37.5 C 301.962,36.5291 303.295,36.8624 304.5,38.5C 303.5,38.5 302.5,38.5 301.5,38.5C 300.833,38.5 300.5,38.1667 300.5,37.5 Z M 254.5,30.5 C 262.323,29.3439 270.323,29.1772 278.5,30C 271.783,30.2038 265.117,30.7038 258.5,31.5C 257.264,30.7542 255.93,30.4208 254.5,30.5 Z M 329.5,41.5 C 331.167,41.5 332.833,41.5 334.5,41.5C 331.124,43.0823 327.458,43.7489 323.5,43.5C 323.5,43.1667 323.5,42.8333 323.5,42.5C 325.735,42.7947 327.735,42.4614 329.5,41.5 Z M 207.5,43.5 C 219.801,44.2738 232.134,44.7738 244.5,45C 222.836,45.5 201.169,45.6666 179.5,45.5C 179.5,45.1667 179.5,44.8333 179.5,44.5C 189.015,44.8269 198.348,44.4936 207.5,43.5 Z M 311.5,43.5 C 315.5,43.5 319.5,43.5 323.5,43.5C 323.5,43.8333 323.5,44.1667 323.5,44.5C 306.847,45.3116 290.18,45.6449 273.5,45.5C 273.167,45.5 272.833,45.5 272.5,45.5C 285.57,44.6024 298.57,43.9357 311.5,43.5 Z"/></g>
<g><path style="opacity:0.999" fill="#034684" d="M 258.5,9.5 C 255.794,9.5751 253.127,9.90843 250.5,10.5C 246.629,10.185 242.962,10.5184 239.5,11.5C 235.087,11.8526 230.754,12.6859 226.5,14C 221.167,16 221.167,18 226.5,20C 232.567,20.5096 238.567,21.343 244.5,22.5C 251.167,23.1667 257.833,23.8333 264.5,24.5C 261.833,24.5 259.167,24.5 256.5,24.5C 255.25,24.5774 254.417,25.244 254,26.5C 253.311,25.6433 252.478,24.9767 251.5,24.5C 249.453,26.0152 247.119,26.8485 244.5,27C 244.833,27.3333 245.167,27.6667 245.5,28C 220.493,28.1668 195.493,28.6668 170.5,29.5C 169.975,30.1924 169.308,30.6924 168.5,31C 169.5,32 170.5,33 171.5,34C 171.167,34.3333 170.833,34.6667 170.5,35C 171.804,37.8748 172.804,40.8748 173.5,44C 173.836,45.0299 174.503,45.5299 175.5,45.5C 199.33,46.6632 223.33,46.8298 247.5,46C 247.957,45.586 248.291,45.086 248.5,44.5C 236.848,43.6675 225.181,43.1675 213.5,43C 211.479,42.5988 210.145,41.4321 209.5,39.5C 218.81,38.5017 228.143,38.1684 237.5,38.5C 242.423,37.9359 247.256,37.9359 252,38.5C 252.318,36.9391 253.151,35.7724 254.5,35C 253.449,33.6152 252.116,32.6152 250.5,32C 251.448,31.5172 252.448,31.3505 253.5,31.5C 258.375,32.9356 263.042,34.9356 267.5,37.5C 269.743,38.4742 272.076,38.8076 274.5,38.5C 274.833,38.5 275.167,38.5 275.5,38.5C 275.953,39.4584 276.619,40.2917 277.5,41C 284.115,42.1079 290.782,42.7746 297.5,43C 288.167,43.3333 278.833,43.6667 269.5,44C 270.244,45.0386 271.244,45.5386 272.5,45.5C 272.833,45.5 273.167,45.5 273.5,45.5C 287.994,46.3313 302.661,46.8313 317.5,47C 316.142,47.9344 314.808,48.7677 313.5,49.5C 295.992,49.17 278.659,49.5033 261.5,50.5C 252.339,50.6661 243.339,50.6661 234.5,50.5C 218.325,50.1703 202.325,50.5036 186.5,51.5C 180.167,51.5 173.833,51.5 167.5,51.5C 166.5,51.5 165.5,51.5 164.5,51.5C 162.585,51.2155 160.919,51.5489 159.5,52.5C 159.167,52.5 158.833,52.5 158.5,52.5C 150.5,51.1667 142.5,51.1667 134.5,52.5C 128.741,52.2143 123.075,52.5476 117.5,53.5C 104.677,52.5045 91.6774,52.1712 78.5,52.5C 64.5447,52.062 50.878,50.3954 37.5,47.5C 34.9765,46.5433 32.6432,45.21 30.5,43.5C 31.3829,42.452 32.0496,41.2853 32.5,40C 31.8065,35.3181 30.8065,30.6515 29.5,26C 39.2549,24.7218 48.9216,23.5551 58.5,22.5C 60.8333,22.5 63.1667,22.5 65.5,22.5C 92.3526,21.9853 119.186,20.9853 146,19.5C 149.361,20.9494 151.861,20.2827 153.5,17.5C 156.769,16.5315 159.769,15.1981 162.5,13.5C 180.053,8.57452 198.053,5.57452 216.5,4.5C 233.147,3.41101 249.814,2.74434 266.5,2.5C 266.5,3.83333 266.5,5.16667 266.5,6.5C 263.169,6.01812 260.503,7.01812 258.5,9.5 Z M 69.5,30.5 C 116.743,29.4057 127.076,29.4057 100.5,30.5C 90.1667,30.5 79.8333,30.5 69.5,30.5 Z M 152.5,31.5 C 147.5,31.5 142.5,31.5 137.5,31.5C 135.708,30.6909 133.708,30.1909 131.5,30C 138.673,29.8456 145.673,30.3456 152.5,31.5 Z M 70.5,31.5 C 71.7868,32.8714 72.4535,34.7047 72.5,37C 72.1667,38.8333 71.8333,40.6667 71.5,42.5C 70.5108,38.8927 70.1774,35.226 70.5,31.5 Z M 96.5,32.5 C 97.4816,35.9619 97.815,39.6286 97.5,43.5C 91.5,43.5 85.5,43.5 79.5,43.5C 77.7354,42.5386 75.7354,42.2053 73.5,42.5C 73.1774,38.774 73.5108,35.1073 74.5,31.5C 81.4665,31.2746 88.7998,31.6079 96.5,32.5 Z M 137.5,31.5 C 141.167,32.1667 144.833,32.8333 148.5,33.5C 150.5,33.5 152.5,33.5 154.5,33.5C 154.5,33.8333 154.5,34.1667 154.5,34.5C 154.167,34.5 153.833,34.5 153.5,34.5C 147.489,34.9774 141.489,35.644 135.5,36.5C 138.654,39.0933 142.321,40.0933 146.5,39.5C 149.305,40.3195 152.305,40.8195 155.5,41C 152.964,41.1862 150.631,41.6862 148.5,42.5C 143.167,42.5 137.833,42.5 132.5,42.5C 132.771,40.6203 132.104,39.287 130.5,38.5C 128.562,36.8372 126.228,36.1706 123.5,36.5C 123.5,36.1667 123.5,35.8333 123.5,35.5C 124.5,35.5 125.5,35.5 126.5,35.5C 126.64,33.8762 125.973,32.7096 124.5,32C 128.821,31.501 133.154,31.3343 137.5,31.5 Z M 152.5,31.5 C 154.103,31.3118 155.437,31.8118 156.5,33C 155.906,33.4643 155.239,33.631 154.5,33.5C 153.833,32.8333 153.167,32.1667 152.5,31.5 Z M 177.5,31.5 C 177.177,35.226 177.511,38.8927 178.5,42.5C 178.833,40.6667 179.167,38.8333 179.5,37C 179.453,34.7047 178.787,32.8714 177.5,31.5 Z M 180.5,31.5 C 180.5,35.5 180.5,39.5 180.5,43.5C 188.5,43.5 196.5,43.5 204.5,43.5C 204.666,39.4862 204.499,35.4862 204,31.5C 203.169,46.1516 202.669,46.1516 202.5,31.5C 195.068,31.9693 187.735,31.9693 180.5,31.5 Z M 206.5,34.5 C 206.264,37.6085 206.597,40.6085 207.5,43.5C 206.235,42.4855 205.569,40.9855 205.5,39C 205.508,37.2933 205.842,35.7933 206.5,34.5 Z M 146.5,39.5 C 144.708,38.6909 142.708,38.1909 140.5,38C 144.551,37.4823 148.551,37.8157 152.5,39C 150.527,39.4955 148.527,39.6621 146.5,39.5 Z M 131.5,42.5 C 131.833,42.5 132.167,42.5 132.5,42.5C 137.64,43.4881 142.974,43.8214 148.5,43.5C 122.677,45.7202 96.677,46.0536 70.5,44.5C 73.2869,43.5233 76.2869,43.19 79.5,43.5C 86.5,44.8333 93.5,44.8333 100.5,43.5C 110.162,44.3832 119.828,44.7165 129.5,44.5C 130.713,44.2528 131.38,43.5862 131.5,42.5 Z M 207.5,43.5 C 219.801,44.2738 232.134,44.7738 244.5,45C 222.836,45.5 201.169,45.6666 179.5,45.5C 179.5,45.1667 179.5,44.8333 179.5,44.5C 189.015,44.8269 198.348,44.4936 207.5,43.5 Z"/></g>
<g><path style="opacity:1" fill="#d17c42" d="M 280.5,4.5 C 278.939,5.24775 277.605,6.41441 276.5,8C 278.233,9.18889 279.9,10.3556 281.5,11.5C 277.252,11.3763 273.918,9.70965 271.5,6.5C 274.171,4.88195 277.171,4.21528 280.5,4.5 Z"/></g>
<g><path style="opacity:0.008" fill="#1e4d6c" d="M 180.5,7.5 C 181.946,6.38705 183.613,6.22039 185.5,7C 183.866,7.49351 182.199,7.66018 180.5,7.5 Z"/></g>
<g><path style="opacity:1" fill="#cd7b43" d="M 301.5,5.5 C 302.167,5.5 302.833,5.5 303.5,5.5C 306.297,6.40888 308.63,8.07555 310.5,10.5C 309.423,11.7051 308.09,12.3718 306.5,12.5C 306.579,11.0695 306.246,9.73619 305.5,8.5C 303.816,7.85027 302.483,6.85027 301.5,5.5 Z"/></g>
<g><path style="opacity:1" fill="#9cd8f5" d="M 256.5,24.5 C 259.167,24.5 261.833,24.5 264.5,24.5C 269.668,24.0662 274.668,23.3996 279.5,22.5C 289.29,21.8423 298.957,20.3423 308.5,18C 311.855,16.8824 315.022,15.3824 318,13.5C 319.206,10.162 318.04,8.32866 314.5,8C 325.906,7.32356 336.906,9.1569 347.5,13.5C 348.833,14.8333 348.833,16.1667 347.5,17.5C 346.354,18.1449 345.354,18.9783 344.5,20C 315.926,27.4532 286.926,29.4532 257.5,26C 256.944,25.6174 256.611,25.1174 256.5,24.5 Z"/></g>
<g><path style="opacity:1" fill="#efb78e" d="M 260.5,9.5 C 263.167,9.5 265.833,9.5 268.5,9.5C 270.743,10.0838 272.743,11.2505 274.5,13C 273.944,13.3826 273.611,13.8826 273.5,14.5C 269.265,15.436 264.931,15.7693 260.5,15.5C 251.167,13.5 251.167,11.5 260.5,9.5 Z"/></g>
<g><path style="opacity:1" fill="#b09e94" d="M 258.5,9.5 C 259.167,9.5 259.833,9.5 260.5,9.5C 251.167,11.5 251.167,13.5 260.5,15.5C 257.059,15.6989 253.726,15.1989 250.5,14C 249.316,12.8545 249.316,11.6879 250.5,10.5C 253.127,9.90843 255.794,9.5751 258.5,9.5 Z"/></g>
<g><path style="opacity:0.996" fill="#41495c" d="M 303.5,5.5 C 307.785,5.5382 311.452,7.0382 314.5,10C 311.828,12.9506 308.495,14.1173 304.5,13.5C 304.842,12.6618 305.508,12.3284 306.5,12.5C 308.09,12.3718 309.423,11.7051 310.5,10.5C 308.63,8.07555 306.297,6.40888 303.5,5.5 Z"/></g>
<g><path style="opacity:1" fill="#9dd9f6" d="M 239.5,11.5 C 241.5,11.5 243.5,11.5 245.5,11.5C 245.33,12.8221 245.663,13.9887 246.5,15C 258.174,18.9457 270.174,20.9457 282.5,21C 281.552,21.4828 280.552,21.6495 279.5,21.5C 267.856,22.3612 256.19,22.6946 244.5,22.5C 238.567,21.343 232.567,20.5096 226.5,20C 221.167,18 221.167,16 226.5,14C 230.754,12.6859 235.087,11.8526 239.5,11.5 Z"/></g>
<g><path style="opacity:1" fill="#4b5468" d="M 271.5,6.5 C 273.918,9.70965 277.252,11.3763 281.5,11.5C 282.492,11.3284 283.158,11.6618 283.5,12.5C 280.068,12.7573 276.734,13.424 273.5,14.5C 273.611,13.8826 273.944,13.3826 274.5,13C 272.743,11.2505 270.743,10.0838 268.5,9.5C 269.9,8.90018 270.9,7.90018 271.5,6.5 Z"/></g>
<g><path style="opacity:0.008" fill="#1e4d6c" d="M 146.5,17.5 C 144.473,17.6621 142.473,17.4955 140.5,17C 142.712,16.2109 144.712,16.3775 146.5,17.5 Z"/></g>
<g><path style="opacity:0.008" fill="#1e4d6c" d="M 430.5,17.5 C 432.288,16.3775 434.288,16.2109 436.5,17C 434.527,17.4955 432.527,17.6621 430.5,17.5 Z"/></g>
<g><path style="opacity:0.008" fill="#1e4d6c" d="M 111.5,18.5 C 120.657,17.3424 129.991,17.1757 139.5,18C 130.173,18.4998 120.839,18.6665 111.5,18.5 Z"/></g>
<g><path style="opacity:0.008" fill="#1e4d6c" d="M 437.5,17.5 C 438.833,18.1667 438.833,18.1667 437.5,17.5 Z"/></g>
<g><path style="opacity:0.008" fill="#1e4d6c" d="M 439.5,18.5 C 447.99,17.3431 456.657,17.1764 465.5,18C 456.84,18.4998 448.173,18.6664 439.5,18.5 Z"/></g>
<g><path style="opacity:0.008" fill="#1e4d6c" d="M 111.5,18.5 C 103.344,19.6566 95.0104,19.8232 86.5,19C 94.8267,18.5003 103.16,18.3336 111.5,18.5 Z"/></g>
<g><path style="opacity:0.008" fill="#1e4d6c" d="M 466.5,19.5 C 474.656,18.3434 482.99,18.1768 491.5,19C 483.173,19.4997 474.84,19.6664 466.5,19.5 Z"/></g>
<g><path style="opacity:0.008" fill="#1e4d6c" d="M 64.5,20.5 C 71.3209,19.3454 78.3209,19.1787 85.5,20C 78.5079,20.4996 71.5079,20.6663 64.5,20.5 Z"/></g>
<g><path style="opacity:0.008" fill="#1e4d6c" d="M 513.5,20.5 C 506.492,20.6663 499.492,20.4996 492.5,20C 499.679,19.1787 506.679,19.3454 513.5,20.5 Z"/></g>
<g><path style="opacity:0.008" fill="#1e4d6c" d="M 43.5,21.5 C 50.3134,20.5088 57.3134,20.1755 64.5,20.5C 57.6866,21.4912 50.6866,21.8245 43.5,21.5 Z"/></g>
<g><path style="opacity:0.604" fill="#1a406a" d="M 162.5,13.5 C 159.769,15.1981 156.769,16.5315 153.5,17.5C 151.861,20.2827 149.361,20.9494 146,19.5C 119.186,20.9853 92.3526,21.9853 65.5,22.5C 90.3187,20.8462 115.319,19.6795 140.5,19C 142.708,18.8091 144.708,18.3091 146.5,17.5C 151.784,15.9606 157.118,14.6272 162.5,13.5 Z"/></g>
<g><path style="opacity:0.008" fill="#1e4d6c" d="M 513.5,20.5 C 520.354,20.176 527.021,20.5093 533.5,21.5C 526.646,21.824 519.979,21.4907 513.5,20.5 Z"/></g>
<g><path style="opacity:0.008" fill="#1e4d6c" d="M 43.5,21.5 C 38.3497,22.6507 33.0164,22.8174 27.5,22C 32.8229,21.5006 38.1563,21.334 43.5,21.5 Z"/></g>
<g><path style="opacity:0.932" fill="#1a416c" d="M 475.5,20.5 C 488.012,20.7189 500.345,21.3856 512.5,22.5C 501.162,22.6665 489.828,22.4999 478.5,22C 477.263,21.7679 476.263,21.2679 475.5,20.5 Z"/></g>
<g><path style="opacity:0.008" fill="#1e4d6c" d="M 533.5,21.5 C 534.833,22.1667 534.833,22.1667 533.5,21.5 Z"/></g>
<g><path style="opacity:0.008" fill="#1e4d6c" d="M 535.5,22.5 C 539.981,21.3516 544.648,21.1849 549.5,22C 544.845,22.4992 540.179,22.6658 535.5,22.5 Z"/></g>
<g><path style="opacity:1" fill="#2f6c9e" d="M 279.5,21.5 C 279.5,21.8333 279.5,22.1667 279.5,22.5C 274.668,23.3996 269.668,24.0662 264.5,24.5C 257.833,23.8333 251.167,23.1667 244.5,22.5C 256.19,22.6946 267.856,22.3612 279.5,21.5 Z"/></g>
<g><path style="opacity:0.008" fill="#1e4d6c" d="M 24.5,43.5 C 24.6068,45.3786 24.1068,45.7119 23,44.5C 22.3333,37.8333 22.3333,31.1667 23,24.5C 23.1721,31.0133 23.6721,37.3466 24.5,43.5 Z"/></g>
<g><path style="opacity:0.008" fill="#1e4d6c" d="M 554.5,24.5 C 555.654,30.987 555.821,37.6536 555,44.5C 554.5,37.8417 554.334,31.175 554.5,24.5 Z"/></g>
<g><path style="opacity:1" fill="#164270" d="M 58.5,22.5 C 48.9216,23.5551 39.2549,24.7218 29.5,26C 30.8065,30.6515 31.8065,35.3181 32.5,40C 32.0496,41.2853 31.3829,42.452 30.5,43.5C 32.6432,45.21 34.9765,46.5433 37.5,47.5C 33.7512,47.2494 30.0845,46.5828 26.5,45.5C 26.1667,44.5 25.5,43.8333 24.5,43.5C 24.1903,37.2424 24.5236,31.0758 25.5,25C 36.39,23.3684 47.39,22.535 58.5,22.5 Z"/></g>
<g><path style="opacity:0.467" fill="#18416c" d="M 154.5,34.5 C 154.5,34.1667 154.5,33.8333 154.5,33.5C 155.239,33.631 155.906,33.4643 156.5,33C 155.437,31.8118 154.103,31.3118 152.5,31.5C 145.673,30.3456 138.673,29.8456 131.5,30C 133.708,30.1909 135.708,30.6909 137.5,31.5C 133.154,31.3343 128.821,31.501 124.5,32C 125.973,32.7096 126.64,33.8762 126.5,35.5C 125.5,35.5 124.5,35.5 123.5,35.5C 123.5,35.8333 123.5,36.1667 123.5,36.5C 121.473,36.3379 119.473,36.5045 117.5,37C 121.577,37.5154 125.577,38.3487 129.5,39.5C 130.107,39.3764 130.44,39.0431 130.5,38.5C 132.104,39.287 132.771,40.6203 132.5,42.5C 132.167,42.5 131.833,42.5 131.5,42.5C 131.38,43.5862 130.713,44.2528 129.5,44.5C 119.828,44.7165 110.162,44.3832 100.5,43.5C 100.5,39.1667 100.5,34.8333 100.5,30.5C 127.076,29.4057 116.743,29.4057 69.5,30.5C 69.1805,35.3633 69.5139,40.03 70.5,44.5C 96.677,46.0536 122.677,45.7202 148.5,43.5C 159.167,43.1667 159.167,42.8333 148.5,42.5C 150.631,41.6862 152.964,41.1862 155.5,41C 152.305,40.8195 149.305,40.3195 146.5,39.5C 142.321,40.0933 138.654,39.0933 135.5,36.5C 141.489,35.644 147.489,34.9774 153.5,34.5C 153.369,35.2389 153.536,35.9056 154,36.5C 155.302,37.0848 156.469,37.7515 157.5,38.5C 161.676,37.8307 163.009,39.3307 161.5,43C 157.916,44.0734 154.25,44.7401 150.5,45C 122.487,46.7004 94.4874,46.8671 66.5,45.5C 66.3341,40.4889 66.5007,35.4889 67,30.5C 67.5,30 68,29.5 68.5,29C 93.8333,28.3333 119.167,28.3333 144.5,29C 148.373,29.2703 152.206,29.7703 156,30.5C 160.606,33.1102 160.106,34.4435 154.5,34.5 Z M 69.5,30.5 C 116.743,29.4057 127.076,29.4057 100.5,30.5C 90.1667,30.5 79.8333,30.5 69.5,30.5 Z M 152.5,31.5 C 147.5,31.5 142.5,31.5 137.5,31.5C 135.708,30.6909 133.708,30.1909 131.5,30C 138.673,29.8456 145.673,30.3456 152.5,31.5 Z M 70.5,31.5 C 70.1774,35.226 70.5108,38.8927 71.5,42.5C 71.8333,40.6667 72.1667,38.8333 72.5,37C 72.4535,34.7047 71.7868,32.8714 70.5,31.5 Z M 96.5,32.5 C 97.4816,35.9619 97.815,39.6286 97.5,43.5C 91.5,43.5 85.5,43.5 79.5,43.5C 77.7354,42.5386 75.7354,42.2053 73.5,42.5C 73.1774,38.774 73.5108,35.1073 74.5,31.5C 81.4665,31.2746 88.7998,31.6079 96.5,32.5 Z M 137.5,31.5 C 141.167,32.1667 144.833,32.8333 148.5,33.5C 150.5,33.5 152.5,33.5 154.5,33.5C 154.5,33.8333 154.5,34.1667 154.5,34.5C 154.167,34.5 153.833,34.5 153.5,34.5C 147.489,34.9774 141.489,35.644 135.5,36.5C 138.654,39.0933 142.321,40.0933 146.5,39.5C 149.305,40.3195 152.305,40.8195 155.5,41C 152.964,41.1862 150.631,41.6862 148.5,42.5C 143.167,42.5 137.833,42.5 132.5,42.5C 132.771,40.6203 132.104,39.287 130.5,38.5C 128.562,36.8372 126.228,36.1706 123.5,36.5C 123.5,36.1667 123.5,35.8333 123.5,35.5C 124.5,35.5 125.5,35.5 126.5,35.5C 126.64,33.8762 125.973,32.7096 124.5,32C 128.821,31.501 133.154,31.3343 137.5,31.5 Z M 152.5,31.5 C 154.103,31.3118 155.437,31.8118 156.5,33C 155.906,33.4643 155.239,33.631 154.5,33.5C 153.833,32.8333 153.167,32.1667 152.5,31.5 Z M 146.5,39.5 C 148.527,39.6621 150.527,39.4955 152.5,39C 148.551,37.8157 144.551,37.4823 140.5,38C 142.708,38.1909 144.708,38.6909 146.5,39.5 Z M 131.5,42.5 C 131.833,42.5 132.167,42.5 132.5,42.5C 137.64,43.4881 142.974,43.8214 148.5,43.5C 122.677,45.7202 96.677,46.0536 70.5,44.5C 73.2869,43.5233 76.2869,43.19 79.5,43.5C 86.5,44.8333 93.5,44.8333 100.5,43.5C 110.162,44.3832 119.828,44.7165 129.5,44.5C 130.713,44.2528 131.38,43.5862 131.5,42.5 Z"/></g>
<g><path style="opacity:0.604" fill="#14406e" d="M 509.5,29.5 C 504.167,29.5 498.833,29.5 493.5,29.5C 493.167,29.5 492.833,29.5 492.5,29.5C 492.167,29.5 491.833,29.5 491.5,29.5C 491.167,29.5 490.833,29.5 490.5,29.5C 490.167,29.5 489.833,29.5 489.5,29.5C 489.167,29.5 488.833,29.5 488.5,29.5C 485.615,29.1936 482.948,29.5269 480.5,30.5C 480.187,34.0419 480.521,37.3752 481.5,40.5C 481.5,41.1667 481.5,41.8333 481.5,42.5C 480.167,43.1667 480.167,43.8333 481.5,44.5C 482.167,44.5 482.833,44.5 483.5,44.5C 483.5,44.8333 483.5,45.1667 483.5,45.5C 481.173,45.7529 479.173,45.0863 477.5,43.5C 478.6,39.5575 478.767,35.5575 478,31.5C 475.959,30.5769 473.792,30.2436 471.5,30.5C 464.833,29.1667 458.167,29.1667 451.5,30.5C 450.5,30.5 449.5,30.5 448.5,30.5C 447.5,29.1667 446.5,29.1667 445.5,30.5C 444.5,30.5 443.5,30.5 442.5,30.5C 423.007,29.5029 403.34,29.1696 383.5,29.5C 382.508,29.3284 381.842,29.6618 381.5,30.5C 374.833,30.8333 374.833,31.1667 381.5,31.5C 389.352,31.8254 397.018,31.492 404.5,30.5C 405.391,31.1098 406.391,31.4431 407.5,31.5C 407.232,33.099 407.566,34.4324 408.5,35.5C 408.5,35.8333 408.5,36.1667 408.5,36.5C 407.532,38.6074 407.198,40.9407 407.5,43.5C 408.209,44.404 409.209,44.7373 410.5,44.5C 419.318,45.4933 428.318,45.8266 437.5,45.5C 439.481,44.8946 439.815,43.8946 438.5,42.5C 440.026,43.1047 441.026,44.2714 441.5,46C 430.167,46.6667 418.833,46.6667 407.5,46C 406.584,45.6258 405.75,45.1258 405,44.5C 404.654,40.4107 404.821,36.5774 405.5,33C 394.5,32.6667 383.5,32.3333 372.5,32C 371.756,30.9614 370.756,30.4614 369.5,30.5C 366.016,29.8346 362.349,29.5013 358.5,29.5C 351.941,29.4107 345.608,30.0773 339.5,31.5C 335.385,32.0949 331.385,33.0949 327.5,34.5C 328.058,33.2101 329.058,32.3768 330.5,32C 339.774,29.1188 349.274,27.9522 359,28.5C 409.305,28.2748 459.472,28.6081 509.5,29.5 Z M 383.5,29.5 C 403.34,29.1696 423.007,29.5029 442.5,30.5C 430.655,30.1717 418.988,30.5051 407.5,31.5C 406.391,31.4431 405.391,31.1098 404.5,30.5C 397.313,30.8245 390.313,30.4912 383.5,29.5 Z M 408.5,36.5 C 408.5,36.1667 408.5,35.8333 408.5,35.5C 408.312,33.8967 408.812,32.5634 410,31.5C 410.825,35.2113 410.659,38.878 409.5,42.5C 408.534,40.604 408.201,38.604 408.5,36.5 Z M 433.5,41.5 C 432.521,38.3752 432.187,35.0419 432.5,31.5C 425.5,31.5 418.5,31.5 411.5,31.5C 411.5,35.5 411.5,39.5 411.5,43.5C 419.243,44.1299 426.576,43.4633 433.5,41.5 Z M 435.5,41.5 C 435.5,42.1667 435.833,42.5 436.5,42.5C 436.44,43.0431 436.107,43.3764 435.5,43.5C 434.818,42.7573 434.151,42.0906 433.5,41.5C 434.167,28.1667 434.833,28.1667 435.5,41.5 Z"/></g>
<g><path style="opacity:0.008" fill="#224b68" d="M 176.5,29.5 C 179.167,30.8333 181.833,30.8333 184.5,29.5C 184.833,29.5 185.167,29.5 185.5,29.5C 185.833,30.8333 186.167,30.8333 186.5,29.5C 186.833,29.5 187.167,29.5 187.5,29.5C 188.833,30.8333 190.167,30.8333 191.5,29.5C 191.833,29.5 192.167,29.5 192.5,29.5C 197.64,30.4881 202.974,30.8214 208.5,30.5C 208.158,31.3382 207.492,31.6716 206.5,31.5C 205.167,32.1667 205.167,32.8333 206.5,33.5C 206.5,33.8333 206.5,34.1667 206.5,34.5C 205.842,35.7933 205.508,37.2933 205.5,39C 205.569,40.9855 206.235,42.4855 207.5,43.5C 198.348,44.4936 189.015,44.8269 179.5,44.5C 179.5,44.8333 179.5,45.1667 179.5,45.5C 178.167,45.5 176.833,45.5 175.5,45.5C 175.586,44.5041 175.252,43.6708 174.5,43C 175.142,38.3993 175.809,33.8993 176.5,29.5 Z M 177.5,31.5 C 177.177,35.226 177.511,38.8927 178.5,42.5C 178.833,40.6667 179.167,38.8333 179.5,37C 179.453,34.7047 178.787,32.8714 177.5,31.5 Z M 180.5,31.5 C 180.5,35.5 180.5,39.5 180.5,43.5C 188.5,43.5 196.5,43.5 204.5,43.5C 204.666,39.4862 204.499,35.4862 204,31.5C 203.169,46.1516 202.669,46.1516 202.5,31.5C 195.068,31.9693 187.735,31.9693 180.5,31.5 Z"/></g>
<g><path style="opacity:0.008" fill="#254c68" d="M 488.5,29.5 C 488.833,29.5 489.167,29.5 489.5,29.5C 489.833,30.8333 490.167,30.8333 490.5,29.5C 490.833,29.5 491.167,29.5 491.5,29.5C 491.833,30.8333 492.167,30.8333 492.5,29.5C 492.833,29.5 493.167,29.5 493.5,29.5C 498.833,30.8333 504.167,30.8333 509.5,29.5C 510.833,34.5 510.833,39.5 509.5,44.5C 500.833,44.5 492.167,44.5 483.5,44.5C 482.833,43.1667 482.167,43.1667 481.5,44.5C 480.167,43.8333 480.167,43.1667 481.5,42.5C 482.787,41.1286 483.453,39.2953 483.5,37C 483.167,35.1667 482.833,33.3333 482.5,31.5C 481.516,34.4281 481.183,37.4281 481.5,40.5C 480.521,37.3752 480.187,34.0419 480.5,30.5C 483.385,30.8064 486.052,30.4731 488.5,29.5 Z M 484.5,31.5 C 484.5,35.5 484.5,39.5 484.5,43.5C 492.196,43.8308 499.862,43.4975 507.5,42.5C 507.833,41.8333 508.167,41.1667 508.5,40.5C 507.915,37.4973 507.248,34.4973 506.5,31.5C 499.622,31.6989 492.289,31.6989 484.5,31.5 Z"/></g>
<g><path style="opacity:0.008" fill="#234b68" d="M 69.5,30.5 C 79.8333,30.5 90.1667,30.5 100.5,30.5C 100.5,34.8333 100.5,39.1667 100.5,43.5C 93.5,44.8333 86.5,44.8333 79.5,43.5C 76.2869,43.19 73.2869,43.5233 70.5,44.5C 69.5139,40.03 69.1805,35.3633 69.5,30.5 Z M 70.5,31.5 C 70.1774,35.226 70.5108,38.8927 71.5,42.5C 71.8333,40.6667 72.1667,38.8333 72.5,37C 72.4535,34.7047 71.7868,32.8714 70.5,31.5 Z M 96.5,32.5 C 97.4816,35.9619 97.815,39.6286 97.5,43.5C 91.5,43.5 85.5,43.5 79.5,43.5C 77.7354,42.5386 75.7354,42.2053 73.5,42.5C 73.1774,38.774 73.5108,35.1073 74.5,31.5C 81.4665,31.2746 88.7998,31.6079 96.5,32.5 Z"/></g>
<g><path style="opacity:0.008" fill="#244c69" d="M 362.5,31.5 C 361.209,31.2627 360.209,31.596 359.5,32.5C 358.5,32.5 357.5,32.5 356.5,32.5C 354.031,31.6829 351.365,31.1829 348.5,31C 353.352,30.1849 358.019,30.3516 362.5,31.5 Z"/></g>
<g><path style="opacity:0.031" fill="#414b57" d="M 383.5,29.5 C 390.313,30.4912 397.313,30.8245 404.5,30.5C 397.018,31.492 389.352,31.8254 381.5,31.5C 381.5,31.1667 381.5,30.8333 381.5,30.5C 381.842,29.6618 382.508,29.3284 383.5,29.5 Z"/></g>
<g><path style="opacity:0.008" fill="#1e4d6c" d="M 137.5,31.5 C 142.5,31.5 147.5,31.5 152.5,31.5C 153.167,32.1667 153.833,32.8333 154.5,33.5C 152.5,33.5 150.5,33.5 148.5,33.5C 144.833,32.8333 141.167,32.1667 137.5,31.5 Z"/></g>
<g><path style="opacity:0.998" fill="#034683" d="M 367.5,30.5 C 368.167,30.5 368.833,30.5 369.5,30.5C 370.756,30.4614 371.756,30.9614 372.5,32C 383.5,32.3333 394.5,32.6667 405.5,33C 404.821,36.5774 404.654,40.4107 405,44.5C 405.75,45.1258 406.584,45.6258 407.5,46C 418.833,46.6667 430.167,46.6667 441.5,46C 441.026,44.2714 440.026,43.1047 438.5,42.5C 437.833,42.5 437.167,42.5 436.5,42.5C 435.833,42.5 435.5,42.1667 435.5,41.5C 436.479,38.3752 436.813,35.0419 436.5,31.5C 446.348,31.8271 456.014,31.4938 465.5,30.5C 467.5,30.5 469.5,30.5 471.5,30.5C 473.792,30.2436 475.959,30.5769 478,31.5C 478.767,35.5575 478.6,39.5575 477.5,43.5C 479.173,45.0863 481.173,45.7529 483.5,45.5C 493.569,46.8288 503.735,46.8288 514,45.5C 518.665,46.7391 518.498,47.5724 513.5,48C 515.833,48.3333 518.167,48.6667 520.5,49C 517.749,49.9428 515.083,50.7761 512.5,51.5C 507.881,52.3136 503.214,52.6469 498.5,52.5C 483.507,51.905 468.507,51.5717 453.5,51.5C 443.833,51.5 434.167,51.5 424.5,51.5C 419.025,50.5111 413.358,50.1778 407.5,50.5C 403.833,50.5 400.167,50.5 396.5,50.5C 369.005,49.5021 341.338,49.1687 313.5,49.5C 314.808,48.7677 316.142,47.9344 317.5,47C 302.661,46.8313 287.994,46.3313 273.5,45.5C 290.18,45.6449 306.847,45.3116 323.5,44.5C 339.347,43.2112 354.014,38.5446 367.5,30.5 Z M 408.5,36.5 C 408.5,36.1667 408.5,35.8333 408.5,35.5C 408.312,33.8967 408.812,32.5634 410,31.5C 410.825,35.2113 410.659,38.878 409.5,42.5C 408.534,40.604 408.201,38.604 408.5,36.5 Z M 433.5,41.5 C 432.521,38.3752 432.187,35.0419 432.5,31.5C 425.5,31.5 418.5,31.5 411.5,31.5C 411.5,35.5 411.5,39.5 411.5,43.5C 419.243,44.1299 426.576,43.4633 433.5,41.5 Z M 435.5,41.5 C 435.5,42.1667 435.833,42.5 436.5,42.5C 436.44,43.0431 436.107,43.3764 435.5,43.5C 434.818,42.7573 434.151,42.0906 433.5,41.5C 434.167,28.1667 434.833,28.1667 435.5,41.5 Z"/></g>
<g><path style="opacity:0.008" fill="#2c4c64" d="M 442.5,30.5 C 443.5,30.5 444.5,30.5 445.5,30.5C 446.5,30.5 447.5,30.5 448.5,30.5C 449.5,30.5 450.5,30.5 451.5,30.5C 456.167,30.5 460.833,30.5 465.5,30.5C 456.014,31.4938 446.348,31.8271 436.5,31.5C 436.813,35.0419 436.479,38.3752 435.5,41.5C 434.833,28.1667 434.167,28.1667 433.5,41.5C 434.151,42.0906 434.818,42.7573 435.5,43.5C 436.107,43.3764 436.44,43.0431 436.5,42.5C 437.167,42.5 437.833,42.5 438.5,42.5C 439.815,43.8946 439.481,44.8946 437.5,45.5C 428.682,44.5067 419.682,44.1734 410.5,44.5C 409.791,43.596 408.791,43.2627 407.5,43.5C 407.198,40.9407 407.532,38.6074 408.5,36.5C 408.201,38.604 408.534,40.604 409.5,42.5C 410.659,38.878 410.825,35.2113 410,31.5C 408.812,32.5634 408.312,33.8967 408.5,35.5C 407.566,34.4324 407.232,33.099 407.5,31.5C 418.988,30.5051 430.655,30.1717 442.5,30.5 Z M 433.5,41.5 C 432.521,38.3752 432.187,35.0419 432.5,31.5C 425.5,31.5 418.5,31.5 411.5,31.5C 411.5,35.5 411.5,39.5 411.5,43.5C 419.243,44.1299 426.576,43.4633 433.5,41.5 Z"/></g>
<g><path style="opacity:0.306" fill="#274260" d="M 550.5,24.5 C 552.456,30.412 553.123,36.7453 552.5,43.5C 551.833,43.5 551.5,43.8333 551.5,44.5C 550.29,44.9321 549.29,45.5987 548.5,46.5C 547.167,46.5 545.833,46.5 544.5,46.5C 545.911,44.461 547.911,43.461 550.5,43.5C 550.5,37.1667 550.5,30.8333 550.5,24.5 Z"/></g>
<g><path style="opacity:0.161" fill="#1a3f67" d="M 225.5,29.5 C 225.833,29.5 226.167,29.5 226.5,29.5C 231.833,30.8333 237.167,30.8333 242.5,29.5C 243.043,29.56 243.376,29.8933 243.5,30.5C 232.52,31.4988 221.52,31.8321 210.5,31.5C 210.5,32.8333 210.5,34.1667 210.5,35.5C 212.415,35.2155 214.081,35.5489 215.5,36.5C 221.437,37.5089 228.771,37.8423 237.5,37.5C 237.5,37.8333 237.5,38.1667 237.5,38.5C 228.143,38.1684 218.81,38.5017 209.5,39.5C 210.145,41.4321 211.479,42.5988 213.5,43C 225.181,43.1675 236.848,43.6675 248.5,44.5C 248.291,45.086 247.957,45.586 247.5,46C 223.33,46.8298 199.33,46.6632 175.5,45.5C 176.833,45.5 178.167,45.5 179.5,45.5C 201.169,45.6666 222.836,45.5 244.5,45C 232.134,44.7738 219.801,44.2738 207.5,43.5C 206.597,40.6085 206.264,37.6085 206.5,34.5C 206.5,34.1667 206.5,33.8333 206.5,33.5C 206.5,32.8333 206.5,32.1667 206.5,31.5C 207.492,31.6716 208.158,31.3382 208.5,30.5C 214.358,30.8222 220.025,30.4889 225.5,29.5 Z"/></g>
<g><path style="opacity:0.231" fill="#204266" d="M 327.5,34.5 C 324.833,36.1667 322.167,37.8333 319.5,39.5C 316.214,40.2071 312.881,40.5405 309.5,40.5C 309.5,40.1667 309.5,39.8333 309.5,39.5C 315.707,38.4491 321.707,36.7825 327.5,34.5 Z"/></g>
<g><path style="opacity:1" fill="#18426c" d="M 288.5,30.5 C 285.507,29.8654 282.507,29.6987 279.5,30C 281.058,30.21 282.391,30.71 283.5,31.5C 276.877,31.6686 270.877,32.002 265.5,32.5C 264.448,32.3505 263.448,32.5172 262.5,33C 266.71,34.6086 270.71,36.4419 274.5,38.5C 272.076,38.8076 269.743,38.4742 267.5,37.5C 263.042,34.9356 258.375,32.9356 253.5,31.5C 252.602,30.8423 251.602,30.1757 250.5,29.5C 256.833,29.1667 263.167,28.8333 269.5,28.5C 276.204,28.5036 282.537,29.1702 288.5,30.5 Z M 254.5,30.5 C 255.93,30.4208 257.264,30.7542 258.5,31.5C 265.117,30.7038 271.783,30.2038 278.5,30C 270.323,29.1772 262.323,29.3439 254.5,30.5 Z"/></g>
<g><path style="opacity:0.008" fill="#1e4d6c" d="M 301.5,38.5 C 302.5,38.5 303.5,38.5 304.5,38.5C 304.918,39.2216 305.584,39.7216 306.5,40C 300.167,40.6667 293.833,40.6667 287.5,40C 292.351,39.8255 297.018,39.3255 301.5,38.5 Z"/></g>
<g><path style="opacity:1" fill="#044480" d="M 123.5,35.5 C 119.206,35.1816 115.206,36.0149 111.5,38C 117.029,38.0842 122.362,39.0842 127.5,41C 120.026,43.4211 112.36,44.0878 104.5,43C 103.584,42.6258 102.75,42.1258 102,41.5C 101.216,38.2397 101.383,35.0731 102.5,32C 109.224,31.226 115.89,31.5594 122.5,33C 123.252,33.6708 123.586,34.5041 123.5,35.5 Z"/></g>
<g><path style="opacity:0.661" fill="#1a3f66" d="M 367.5,30.5 C 354.014,38.5446 339.347,43.2112 323.5,44.5C 323.5,44.1667 323.5,43.8333 323.5,43.5C 327.458,43.7489 331.124,43.0823 334.5,41.5C 338.693,41.0474 342.693,39.8808 346.5,38C 345.906,37.5357 345.239,37.369 344.5,37.5C 345.78,36.0687 347.447,35.4021 349.5,35.5C 349.56,36.0431 349.893,36.3764 350.5,36.5C 353.708,35.391 356.708,34.0577 359.5,32.5C 360.791,32.7373 361.791,32.404 362.5,31.5C 364.216,31.3713 365.883,31.038 367.5,30.5 Z"/></g>
<g><path style="opacity:0.647" fill="#194168" d="M 275.5,38.5 C 276.833,38.8333 278.167,39.1667 279.5,39.5C 289.314,41.7023 299.314,42.0356 309.5,40.5C 310.878,41.2344 312.378,41.9011 314,42.5C 317.017,42.219 320.183,42.219 323.5,42.5C 323.5,42.8333 323.5,43.1667 323.5,43.5C 319.5,43.5 315.5,43.5 311.5,43.5C 298.57,43.9357 285.57,44.6024 272.5,45.5C 271.244,45.5386 270.244,45.0386 269.5,44C 278.833,43.6667 288.167,43.3333 297.5,43C 290.782,42.7746 284.115,42.1079 277.5,41C 276.619,40.2917 275.953,39.4584 275.5,38.5 Z"/></g>
<g><path style="opacity:0.008" fill="#1e4d6c" d="M 552.5,43.5 C 553.043,43.56 553.376,43.8933 553.5,44.5C 552.743,45.7733 552.077,45.7733 551.5,44.5C 552.167,44.5 552.5,44.1667 552.5,43.5 Z"/></g>
<g><path style="opacity:0.008" fill="#1e4d6c" d="M 26.5,45.5 C 25.8333,46.1667 25.8333,46.1667 26.5,45.5 Z"/></g>
<g><path style="opacity:0.008" fill="#1e4d6c" d="M 548.5,47.5 C 548.5,47.1667 548.5,46.8333 548.5,46.5C 551.167,46.8333 551.167,47.1667 548.5,47.5 Z"/></g>
<g><path style="opacity:0.008" fill="#1e4d6c" d="M 548.5,47.5 C 547.749,48.5735 546.749,48.7401 545.5,48C 546.448,47.5172 547.448,47.3505 548.5,47.5 Z"/></g>
<g><path style="opacity:0.008" fill="#1e4d6c" d="M 540.5,49.5 C 540.5,49.1667 540.5,48.8333 540.5,48.5C 545.833,48.8333 545.833,49.1667 540.5,49.5 Z"/></g>
<g><path style="opacity:0.467" fill="#20456b" d="M 261.5,50.5 C 278.659,49.5033 295.992,49.17 313.5,49.5C 341.338,49.1687 369.005,49.5021 396.5,50.5C 388.648,50.1746 380.982,50.508 373.5,51.5C 373.167,51.5 372.833,51.5 372.5,51.5C 359.167,50.1667 345.833,50.1667 332.5,51.5C 332.167,51.5 331.833,51.5 331.5,51.5C 326.5,50.1667 321.5,50.1667 316.5,51.5C 316.167,51.5 315.833,51.5 315.5,51.5C 314.167,50.1667 312.833,50.1667 311.5,51.5C 311.167,51.5 310.833,51.5 310.5,51.5C 310.167,50.1667 309.833,50.1667 309.5,51.5C 309.167,51.5 308.833,51.5 308.5,51.5C 304.833,50.1667 301.167,50.1667 297.5,51.5C 295.167,51.5 292.833,51.5 290.5,51.5C 289.833,50.1667 289.167,50.1667 288.5,51.5C 288.167,51.5 287.833,51.5 287.5,51.5C 278.728,49.9894 274.061,49.9894 273.5,51.5C 267.69,52.4896 261.69,52.8229 255.5,52.5C 258.118,51.944 260.118,51.2773 261.5,50.5 Z"/></g>
<g><path style="opacity:0.306" fill="#274361" d="M 186.5,51.5 C 202.325,50.5036 218.325,50.1703 234.5,50.5C 220.961,51.1832 207.295,51.8498 193.5,52.5C 191.253,51.6258 188.92,51.2924 186.5,51.5 Z"/></g>
<g><path style="opacity:0.251" fill="#2d465f" d="M 407.5,51.5 C 407.5,51.1667 407.5,50.8333 407.5,50.5C 413.358,50.1778 419.025,50.5111 424.5,51.5C 424.5,51.8333 424.5,52.1667 424.5,52.5C 421.5,52.5 418.5,52.5 415.5,52.5C 413.052,51.5269 410.385,51.1936 407.5,51.5 Z"/></g>
<g><path style="opacity:0.008" fill="#1e4d6c" d="M 534.5,50.5 C 532.712,51.6225 530.712,51.7891 528.5,51C 530.473,50.5045 532.473,50.3379 534.5,50.5 Z"/></g>
<g><path style="opacity:0.008" fill="#234c69" d="M 164.5,51.5 C 165.5,51.5 166.5,51.5 167.5,51.5C 172.681,52.3151 178.014,52.9818 183.5,53.5C 182.081,54.4511 180.415,54.7845 178.5,54.5C 172.167,53.8333 165.833,53.1667 159.5,52.5C 161.415,52.7845 163.081,52.4511 164.5,51.5 Z"/></g>
<g><path style="opacity:0.647" fill="#254466" d="M 453.5,52.5 C 453.5,52.1667 453.5,51.8333 453.5,51.5C 468.507,51.5717 483.507,51.905 498.5,52.5C 490.805,53.3533 483.139,53.6867 475.5,53.5C 468.173,53.0561 460.84,52.7228 453.5,52.5 Z"/></g>
<g><path style="opacity:0.008" fill="#234967" d="M 134.5,52.5 C 142.5,51.1667 150.5,51.1667 158.5,52.5C 152.158,52.3338 145.825,52.5005 139.5,53C 144.019,53.1753 148.353,53.6753 152.5,54.5C 141.68,55.2743 131.013,55.1076 120.5,54C 127.93,54.0415 132.597,53.5415 134.5,52.5 Z"/></g>
<g><path style="opacity:0.008" fill="#1e4d6c" d="M 67.5,54.5 C 70.6399,53.3592 73.9733,53.1925 77.5,54C 74.1832,54.4983 70.8499,54.665 67.5,54.5 Z"/></g>
<g><path style="opacity:0.008" fill="#204969" d="M 78.5,52.5 C 91.6774,52.1712 104.677,52.5045 117.5,53.5C 111.158,53.3338 104.825,53.5005 98.5,54C 103.5,54.3333 108.5,54.6667 113.5,55C 107.072,55.3972 100.905,55.8972 95,56.5C 89.5829,55.6911 84.0829,55.1911 78.5,55C 84.8333,54.6667 91.1667,54.3333 97.5,54C 90.9867,53.8279 84.6534,53.3279 78.5,52.5 Z"/></g>
<g><path style="opacity:0.008" fill="#1e4d6c" d="M 555.5,54.5 C 560.167,53.1667 564.833,53.1667 569.5,54.5C 564.833,54.5 560.167,54.5 555.5,54.5 Z"/></g>
<g><path style="opacity:0.008" fill="#1e4d6c" d="M 114.5,55.5 C 115.946,54.3871 117.613,54.2204 119.5,55C 117.866,55.4935 116.199,55.6602 114.5,55.5 Z"/></g>
<g><path style="opacity:1" fill="#5ebd56" d="M 415.5,52.5 C 418.5,52.5 421.5,52.5 424.5,52.5C 427.167,52.5 429.833,52.5 432.5,52.5C 438.653,53.3279 444.987,53.8279 451.5,54C 449.833,54.3333 448.167,54.6667 446.5,55C 421.995,55.9089 397.662,57.0756 373.5,58.5C 372.833,58.5 372.167,58.5 371.5,58.5C 367.5,58.5 363.5,58.5 359.5,58.5C 302.491,58.8465 245.491,58.3465 188.5,57C 190.577,56.8078 192.577,56.3078 194.5,55.5C 223.144,54.0062 251.811,53.1729 280.5,53C 325.499,52.5 370.499,52.3333 415.5,52.5 Z"/></g>
<g><path style="opacity:0.031" fill="#3a4c5b" d="M 466.5,55.5 C 467.568,54.5655 468.901,54.2322 470.5,54.5C 470.167,55.1667 469.833,55.8333 469.5,56.5C 468.391,56.4431 467.391,56.1098 466.5,55.5 Z"/></g>
<g><path style="opacity:0.008" fill="#1e4d6c" d="M 539.5,55.5 C 541.628,54.3709 543.961,54.2042 546.5,55C 544.19,55.4966 541.857,55.6633 539.5,55.5 Z"/></g>
<g><path style="opacity:0.008" fill="#1e4d6c" d="M 555.5,54.5 C 555.5,54.8333 555.5,55.1667 555.5,55.5C 551.5,55.1667 551.5,54.8333 555.5,54.5 Z"/></g>
<g><path style="opacity:0.008" fill="#1e4d6c" d="M 569.5,54.5 C 570.552,54.3505 571.552,54.5172 572.5,55C 571.251,55.7401 570.251,55.5735 569.5,54.5 Z"/></g>
<g><path style="opacity:0.008" fill="#1e4d6c" d="M 27.5,56.5 C 28.2506,55.4265 29.2506,55.2599 30.5,56C 29.552,56.4828 28.552,56.6495 27.5,56.5 Z"/></g>
<g><path style="opacity:0.71" fill="#62a55c" d="M 432.5,52.5 C 439.5,52.5 446.5,52.5 453.5,52.5C 460.84,52.7228 468.173,53.0561 475.5,53.5C 476.552,53.3505 477.552,53.5172 478.5,54C 475.854,54.4974 473.187,54.6641 470.5,54.5C 468.901,54.2322 467.568,54.5655 466.5,55.5C 459.809,55.4542 453.143,55.7875 446.5,56.5C 446.167,56.5 445.833,56.5 445.5,56.5C 444.167,56.5 442.833,56.5 441.5,56.5C 440.833,56.5 440.167,56.5 439.5,56.5C 433.848,57.0318 428.181,57.3651 422.5,57.5C 421.833,57.5 421.167,57.5 420.5,57.5C 420.167,57.5 419.833,57.5 419.5,57.5C 418.833,57.5 418.167,57.5 417.5,57.5C 413.5,57.5 409.5,57.5 405.5,57.5C 403.265,57.2053 401.265,57.5386 399.5,58.5C 398.5,58.5 397.5,58.5 396.5,58.5C 395.833,58.5 395.167,58.5 394.5,58.5C 392.833,58.5 391.167,58.5 389.5,58.5C 389.167,58.5 388.833,58.5 388.5,58.5C 387.5,58.5 386.5,58.5 385.5,58.5C 385.167,58.5 384.833,58.5 384.5,58.5C 383.833,58.5 383.167,58.5 382.5,58.5C 382.167,58.5 381.833,58.5 381.5,58.5C 378.941,58.1984 376.607,58.5318 374.5,59.5C 373.833,59.5 373.5,59.1667 373.5,58.5C 397.662,57.0756 421.995,55.9089 446.5,55C 448.167,54.6667 449.833,54.3333 451.5,54C 444.987,53.8279 438.653,53.3279 432.5,52.5 Z"/></g>
<g><path style="opacity:0.008" fill="#1e4d6c" d="M 472.5,55.5 C 473.833,56.1667 473.833,56.1667 472.5,55.5 Z"/></g>
<g><path style="opacity:0.008" fill="#1e4d6c" d="M 474.5,56.5 C 474.897,55.475 475.563,55.3083 476.5,56C 475.906,56.4643 475.239,56.631 474.5,56.5 Z"/></g>
<g><path style="opacity:0.008" fill="#1e4d6c" d="M 534.5,56.5 C 535.601,55.4017 536.934,55.235 538.5,56C 537.207,56.49 535.873,56.6567 534.5,56.5 Z"/></g>
<g><path style="opacity:0.008" fill="#1e4d6c" d="M 5.5,57.5 C 7.96638,56.3659 10.633,56.1993 13.5,57C 10.854,57.4974 8.1873,57.6641 5.5,57.5 Z"/></g>
<g><path style="opacity:0.063" fill="#354d5d" d="M 144.5,55.5 C 145.833,56.1667 147.167,56.8333 148.5,57.5C 146.396,57.7989 144.396,57.4656 142.5,56.5C 142.957,55.7025 143.624,55.3691 144.5,55.5 Z"/></g>
<g><path style="opacity:0.008" fill="#1e4d6c" d="M 439.5,56.5 C 440.167,56.5 440.833,56.5 441.5,56.5C 442.833,57.8333 444.167,57.8333 445.5,56.5C 445.833,56.5 446.167,56.5 446.5,56.5C 447.263,57.2679 448.263,57.7679 449.5,58C 444.5,58.6667 439.5,58.6667 434.5,58C 436.382,57.8019 438.048,57.3019 439.5,56.5 Z"/></g>
<g><path style="opacity:0.008" fill="#1e4d6c" d="M 454.5,57.5 C 458.311,56.3547 462.311,56.1881 466.5,57C 462.639,58.3927 458.639,58.5594 454.5,57.5 Z"/></g>
<g><path style="opacity:0.008" fill="#1e4d6c" d="M 469.5,56.5 C 470.833,57.1667 470.833,57.1667 469.5,56.5 Z"/></g>
<g><path style="opacity:0.008" fill="#1e4d6c" d="M 521.5,57.5 C 523.288,56.3775 525.288,56.2109 527.5,57C 525.527,57.4955 523.527,57.6621 521.5,57.5 Z"/></g>
<g><path style="opacity:0.008" fill="#1e4d6c" d="M 532.5,56.5 C 533.833,57.1667 533.833,57.1667 532.5,56.5 Z"/></g>
<g><path style="opacity:0.008" fill="#1e4d6c" d="M 32.5,57.5 C 33.8333,58.1667 33.8333,58.1667 32.5,57.5 Z"/></g>
<g><path style="opacity:0.008" fill="#1e4d6c" d="M 46.5,58.5 C 48.2884,57.3775 50.2884,57.2109 52.5,58C 50.5273,58.4955 48.5273,58.6621 46.5,58.5 Z"/></g>
<g><path style="opacity:0.008" fill="#1e4d6c" d="M 151.5,57.5 C 151.833,57.5 152.167,57.5 152.5,57.5C 153.167,58.8333 153.833,58.8333 154.5,57.5C 155.167,57.5 155.833,57.5 156.5,57.5C 157.167,58.8333 157.833,58.8333 158.5,57.5C 158.833,57.5 159.167,57.5 159.5,57.5C 160.5,58.8333 161.5,58.8333 162.5,57.5C 162.833,57.5 163.167,57.5 163.5,57.5C 164.952,58.3019 166.618,58.8019 168.5,59C 165.776,59.2695 163.109,59.7695 160.5,60.5C 157.511,60.8133 154.178,60.3133 150.5,59C 151.056,58.6174 151.389,58.1174 151.5,57.5 Z"/></g>
<g><path style="opacity:0.094" fill="#324c5e" d="M 171.5,57.5 C 174.385,57.1936 177.052,57.5269 179.5,58.5C 178.833,58.5 178.5,58.8333 178.5,59.5C 177.883,59.6107 177.383,59.944 177,60.5C 175.351,59.0472 173.518,58.0472 171.5,57.5 Z"/></g>
<g><path style="opacity:0.031" fill="#374c5d" d="M 399.5,58.5 C 401.265,57.5386 403.265,57.2053 405.5,57.5C 404.833,58.1667 404.167,58.8333 403.5,59.5C 403.167,59.5 402.833,59.5 402.5,59.5C 402.167,58.1667 401.833,58.1667 401.5,59.5C 401.167,59.5 400.833,59.5 400.5,59.5C 400.5,58.8333 400.167,58.5 399.5,58.5 Z"/></g>
<g><path style="opacity:0.008" fill="#1e4d6c" d="M 417.5,57.5 C 418.167,57.5 418.833,57.5 419.5,57.5C 419.833,58.8333 420.167,58.8333 420.5,57.5C 421.167,57.5 421.833,57.5 422.5,57.5C 423.952,58.3019 425.618,58.8019 427.5,59C 424.574,59.2178 421.74,59.7178 419,60.5C 416.046,60.3842 412.546,59.8842 408.5,59C 411.695,58.8195 414.695,58.3195 417.5,57.5 Z"/></g>
<g><path style="opacity:0.008" fill="#1e4d6c" d="M 450.5,58.5 C 451.251,57.4265 452.251,57.2599 453.5,58C 452.552,58.4828 451.552,58.6495 450.5,58.5 Z"/></g>
<g><path style="opacity:0.008" fill="#1e4d6c" d="M 575.5,57.5 C 576.833,58.1667 576.833,58.1667 575.5,57.5 Z"/></g>
<g><path style="opacity:0.008" fill="#1e4d6c" d="M 145.5,59.5 C 145.897,58.475 146.563,58.3083 147.5,59C 146.906,59.4643 146.239,59.631 145.5,59.5 Z"/></g>
<g><path style="opacity:0.008" fill="#1e4d6c" d="M 181.5,58.5 C 182.167,58.5 182.833,58.5 183.5,58.5C 186.5,59.8333 189.5,59.8333 192.5,58.5C 192.833,58.5 193.167,58.5 193.5,58.5C 196.305,59.3195 199.305,59.8195 202.5,60C 194.461,61.3941 186.461,61.2274 178.5,59.5C 179.791,59.7373 180.791,59.404 181.5,58.5 Z"/></g>
<g><path style="opacity:0.094" fill="#344c5d" d="M 205.5,58.5 C 209.702,58.1832 213.702,58.5166 217.5,59.5C 216.209,59.2627 215.209,59.596 214.5,60.5C 213.833,60.5 213.167,60.5 212.5,60.5C 212.167,59.1667 211.833,59.1667 211.5,60.5C 211.167,60.5 210.833,60.5 210.5,60.5C 208.833,59.8333 207.167,59.1667 205.5,58.5 Z"/></g>
<g><path style="opacity:0.788" fill="#62a95b" d="M 273.5,51.5 C 278.167,51.5 282.833,51.5 287.5,51.5C 287.833,51.5 288.167,51.5 288.5,51.5C 289.167,51.5 289.833,51.5 290.5,51.5C 292.833,51.5 295.167,51.5 297.5,51.5C 301.167,51.5 304.833,51.5 308.5,51.5C 308.833,51.5 309.167,51.5 309.5,51.5C 309.833,51.5 310.167,51.5 310.5,51.5C 310.833,51.5 311.167,51.5 311.5,51.5C 312.833,51.5 314.167,51.5 315.5,51.5C 315.833,51.5 316.167,51.5 316.5,51.5C 321.5,51.5 326.5,51.5 331.5,51.5C 331.833,51.5 332.167,51.5 332.5,51.5C 345.833,51.5 359.167,51.5 372.5,51.5C 372.833,51.5 373.167,51.5 373.5,51.5C 384.833,51.5 396.167,51.5 407.5,51.5C 410.385,51.1936 413.052,51.5269 415.5,52.5C 370.499,52.3333 325.499,52.5 280.5,53C 251.811,53.1729 223.144,54.0062 194.5,55.5C 192.577,56.3078 190.577,56.8078 188.5,57C 245.491,58.3465 302.491,58.8465 359.5,58.5C 359.5,58.8333 359.5,59.1667 359.5,59.5C 358.5,59.5 357.5,59.5 356.5,59.5C 356.167,59.5 355.833,59.5 355.5,59.5C 354.167,59.5 352.833,59.5 351.5,59.5C 350.5,59.5 349.5,59.5 348.5,59.5C 346.833,59.5 345.167,59.5 343.5,59.5C 342.833,59.5 342.167,59.5 341.5,59.5C 337.5,59.5 333.5,59.5 329.5,59.5C 329.167,59.5 328.833,59.5 328.5,59.5C 326.167,59.5 323.833,59.5 321.5,59.5C 320.833,59.5 320.167,59.5 319.5,59.5C 316.5,59.5 313.5,59.5 310.5,59.5C 307.167,59.5 303.833,59.5 300.5,59.5C 290.833,59.5 281.167,59.5 271.5,59.5C 270.167,59.5 268.833,59.5 267.5,59.5C 263.5,59.5 259.5,59.5 255.5,59.5C 254.5,59.5 253.5,59.5 252.5,59.5C 250.833,59.5 249.167,59.5 247.5,59.5C 247.167,59.5 246.833,59.5 246.5,59.5C 240.833,59.5 235.167,59.5 229.5,59.5C 229.167,59.5 228.833,59.5 228.5,59.5C 228.167,59.5 227.833,59.5 227.5,59.5C 226.833,59.5 226.167,59.5 225.5,59.5C 224.5,59.5 223.5,59.5 222.5,59.5C 221.833,59.5 221.167,59.5 220.5,59.5C 219.5,59.5 218.5,59.5 217.5,59.5C 213.702,58.5166 209.702,58.1832 205.5,58.5C 201.5,58.5 197.5,58.5 193.5,58.5C 193.167,58.5 192.833,58.5 192.5,58.5C 189.5,58.5 186.5,58.5 183.5,58.5C 182.833,58.5 182.167,58.5 181.5,58.5C 180.833,58.5 180.167,58.5 179.5,58.5C 177.052,57.5269 174.385,57.1936 171.5,57.5C 168.833,57.5 166.167,57.5 163.5,57.5C 163.167,57.5 162.833,57.5 162.5,57.5C 161.5,57.5 160.5,57.5 159.5,57.5C 159.167,57.5 158.833,57.5 158.5,57.5C 157.833,57.5 157.167,57.5 156.5,57.5C 155.833,57.5 155.167,57.5 154.5,57.5C 153.833,57.5 153.167,57.5 152.5,57.5C 152.167,57.5 151.833,57.5 151.5,57.5C 150.5,57.5 149.5,57.5 148.5,57.5C 147.167,56.8333 145.833,56.1667 144.5,55.5C 147.385,55.8064 150.052,55.4731 152.5,54.5C 161.167,54.5 169.833,54.5 178.5,54.5C 180.415,54.7845 182.081,54.4511 183.5,53.5C 207.495,52.8769 231.495,52.5436 255.5,52.5C 261.69,52.8229 267.69,52.4896 273.5,51.5 Z"/></g>
<g><path style="opacity:0.063" fill="#344d5e" d="M 359.5,59.5 C 359.5,59.1667 359.5,58.8333 359.5,58.5C 363.5,58.5 367.5,58.5 371.5,58.5C 368.878,59.0331 366.378,60.0331 364,61.5C 363.617,60.944 363.117,60.6107 362.5,60.5C 361.791,59.596 360.791,59.2627 359.5,59.5 Z"/></g>
<g><path style="opacity:0.008" fill="#1e4d6c" d="M 381.5,58.5 C 381.833,58.5 382.167,58.5 382.5,58.5C 383.167,59.8333 383.833,59.8333 384.5,58.5C 384.833,58.5 385.167,58.5 385.5,58.5C 386.5,59.8333 387.5,59.8333 388.5,58.5C 388.833,58.5 389.167,58.5 389.5,58.5C 391.167,59.8333 392.833,59.8333 394.5,58.5C 395.167,58.5 395.833,58.5 396.5,58.5C 397.568,59.4345 398.901,59.7678 400.5,59.5C 397.772,60.2052 394.939,60.8719 392,61.5C 386.574,62.0457 380.741,61.379 374.5,59.5C 377.059,59.8016 379.393,59.4682 381.5,58.5 Z"/></g>
<g><path style="opacity:0.008" fill="#1e4d6c" d="M 428.5,58.5 C 429.833,59.1667 429.833,59.1667 428.5,58.5 Z"/></g>
<g><path style="opacity:0.008" fill="#1e4d6c" d="M 430.5,59.5 C 430.897,58.475 431.563,58.3083 432.5,59C 431.906,59.4643 431.239,59.631 430.5,59.5 Z"/></g>
<g><path style="opacity:0.008" fill="#1e4d6c" d="M 0.5,59.5 C 1.83333,60.1667 1.83333,60.1667 0.5,59.5 Z"/></g>
<g><path style="opacity:0.008" fill="#1e4d6c" d="M 54.5,60.5 C 56.2884,59.3775 58.2884,59.2109 60.5,60C 58.5273,60.4955 56.5273,60.6621 54.5,60.5 Z"/></g>
<g><path style="opacity:0.008" fill="#1e4d6c" d="M 74.5,60.5 C 75.9464,59.3871 77.6131,59.2204 79.5,60C 77.8659,60.4935 76.1992,60.6602 74.5,60.5 Z"/></g>
<g><path style="opacity:0.008" fill="#1e4d6c" d="M 170.5,60.5 C 171.251,59.4265 172.251,59.2599 173.5,60C 172.552,60.4828 171.552,60.6495 170.5,60.5 Z"/></g>
<g><path style="opacity:0.008" fill="#1e4d6c" d="M 174.5,59.5 C 175.833,60.1667 175.833,60.1667 174.5,59.5 Z"/></g>
<g><path style="opacity:0.008" fill="#1f4c6b" d="M 220.5,59.5 C 221.167,59.5 221.833,59.5 222.5,59.5C 223.5,60.8333 224.5,60.8333 225.5,59.5C 226.167,59.5 226.833,59.5 227.5,59.5C 227.833,60.8333 228.167,60.8333 228.5,59.5C 228.833,59.5 229.167,59.5 229.5,59.5C 235.167,60.8333 240.833,60.8333 246.5,59.5C 246.833,59.5 247.167,59.5 247.5,59.5C 249.167,60.8333 250.833,60.8333 252.5,59.5C 253.5,59.5 254.5,59.5 255.5,59.5C 257.631,60.3138 259.964,60.8138 262.5,61C 258.911,61.2069 255.411,61.7069 252,62.5C 242.705,61.4544 233.372,61.4544 224,62.5C 221.595,61.7256 219.095,61.2256 216.5,61C 218.058,60.79 219.391,60.29 220.5,59.5 Z"/></g>
<g><path style="opacity:0.008" fill="#1e4d6c" d="M 267.5,60.5 C 267.5,60.1667 267.5,59.8333 267.5,59.5C 268.833,59.5 270.167,59.5 271.5,59.5C 271.5,59.8333 271.5,60.1667 271.5,60.5C 270.298,61.4054 268.964,61.4054 267.5,60.5 Z"/></g>
<g><path style="opacity:0.008" fill="#1e4d6c" d="M 300.5,60.5 C 300.5,60.1667 300.5,59.8333 300.5,59.5C 303.833,59.5 307.167,59.5 310.5,59.5C 310.5,59.8333 310.5,60.1667 310.5,60.5C 307.048,60.9296 303.714,60.9296 300.5,60.5 Z"/></g>
<g><path style="opacity:0.008" fill="#1e4d6c" d="M 319.5,59.5 C 320.167,59.5 320.833,59.5 321.5,59.5C 323.833,60.8333 326.167,60.8333 328.5,59.5C 328.833,59.5 329.167,59.5 329.5,59.5C 333.5,60.8333 337.5,60.8333 341.5,59.5C 342.167,59.5 342.833,59.5 343.5,59.5C 345.167,60.8333 346.833,60.8333 348.5,59.5C 349.5,59.5 350.5,59.5 351.5,59.5C 352.833,60.8333 354.167,60.8333 355.5,59.5C 355.833,59.5 356.167,59.5 356.5,59.5C 357.609,60.29 358.942,60.79 360.5,61C 344.455,62.4212 329.122,62.4212 314.5,61C 316.382,60.8019 318.048,60.3019 319.5,59.5 Z"/></g>
<g><path style="opacity:0.008" fill="#1e4d6c" d="M 401.5,59.5 C 401.833,59.5 402.167,59.5 402.5,59.5C 402.315,60.1701 401.981,60.1701 401.5,59.5 Z"/></g>
<g><path style="opacity:0.008" fill="#1e4d6c" d="M 403.5,59.5 C 404.833,60.1667 404.833,60.1667 403.5,59.5 Z"/></g>
<g><path style="opacity:0.008" fill="#1e4d6c" d="M 405.5,59.5 C 406.833,60.1667 406.833,60.1667 405.5,59.5 Z"/></g>
<g><path style="opacity:0.706" fill="#1a426b" d="M 27.5,56.5 C 28.7175,57.1614 30.0508,57.8281 31.5,58.5C 31.2907,59.086 30.9574,59.586 30.5,60C 34.0252,60.1787 37.3586,60.6787 40.5,61.5C 36.5,61.5 32.5,61.5 28.5,61.5C 26.6621,60.3217 24.9955,60.655 23.5,62.5C 15.5,62.8333 15.5,63.1667 23.5,63.5C 22.469,64.2485 21.3024,64.9152 20,65.5C 16.507,63.3333 12.6736,62.1667 8.5,62C 11.1667,61.6667 13.8333,61.3333 16.5,61C 12.1289,60.8275 7.79557,60.3275 3.5,59.5C 11.4815,58.3121 19.4815,57.3121 27.5,56.5 Z"/></g>
<g><path style="opacity:0.008" fill="#1e4d6c" d="M 61.5,61.5 C 62.9464,60.3871 64.6131,60.2204 66.5,61C 64.8659,61.4935 63.1992,61.6602 61.5,61.5 Z"/></g>
<g><path style="opacity:0.008" fill="#1e4d6c" d="M 204.5,61.5 C 205.601,60.4017 206.934,60.235 208.5,61C 207.207,61.49 205.873,61.6567 204.5,61.5 Z"/></g>
<g><path style="opacity:0.008" fill="#1e4d6c" d="M 210.5,60.5 C 209.833,61.1667 209.833,61.1667 210.5,60.5 Z"/></g>
<g><path style="opacity:0.008" fill="#1e4d6c" d="M 211.5,60.5 C 211.833,60.5 212.167,60.5 212.5,60.5C 212.315,61.1701 211.981,61.1701 211.5,60.5 Z"/></g>
<g><path style="opacity:0.008" fill="#1e4d6c" d="M 214.5,60.5 C 215.833,61.1667 215.833,61.1667 214.5,60.5 Z"/></g>
<g><path style="opacity:0.008" fill="#1e4d6c" d="M 264.5,60.5 C 265.833,61.1667 265.833,61.1667 264.5,60.5 Z"/></g>
<g><path style="opacity:0.008" fill="#1e4d6c" d="M 267.5,60.5 C 266.833,61.1667 266.833,61.1667 267.5,60.5 Z"/></g>
<g><path style="opacity:0.008" fill="#1e4d6c" d="M 271.5,60.5 C 272.833,61.1667 272.833,61.1667 271.5,60.5 Z"/></g>
<g><path style="opacity:0.008" fill="#1e4d6c" d="M 300.5,60.5 C 299.833,61.1667 299.833,61.1667 300.5,60.5 Z"/></g>
<g><path style="opacity:0.008" fill="#1e4d6c" d="M 310.5,60.5 C 311.239,60.369 311.906,60.5357 312.5,61C 311.563,61.6917 310.897,61.525 310.5,60.5 Z"/></g>
<g><path style="opacity:0.008" fill="#1e4d6c" d="M 362.5,60.5 C 361.833,61.1667 361.833,61.1667 362.5,60.5 Z"/></g>
<g><path style="opacity:0.008" fill="#1e4d6c" d="M 367.5,60.5 C 368.833,61.1667 368.833,61.1667 367.5,60.5 Z"/></g>
<g><path style="opacity:0.008" fill="#1e4d6c" d="M 369.5,61.5 C 370.251,60.4265 371.251,60.2599 372.5,61C 371.552,61.4828 370.552,61.6495 369.5,61.5 Z"/></g>
<g><path style="opacity:0.008" fill="#1e4d6c" d="M 510.5,61.5 C 505.156,61.666 499.823,61.4994 494.5,61C 500.016,60.1826 505.35,60.3493 510.5,61.5 Z"/></g>
<g><path style="opacity:0.008" fill="#1e4d6c" d="M 566.5,61.5 C 567.946,60.3871 569.613,60.2204 571.5,61C 569.866,61.4935 568.199,61.6602 566.5,61.5 Z"/></g>
<g><path style="opacity:0.008" fill="#1e4d6c" d="M 28.5,61.5 C 28.5,61.8333 28.5,62.1667 28.5,62.5C 27.6365,63.463 26.9698,63.463 26.5,62.5C 26.9569,61.7025 27.6236,61.3691 28.5,61.5 Z"/></g>
<g><path style="opacity:0.008" fill="#1e4d6c" d="M 457.5,62.5 C 461.167,61.1667 464.833,61.1667 468.5,62.5C 464.833,62.5 461.167,62.5 457.5,62.5 Z"/></g>
<g><path style="opacity:0.008" fill="#1e4d6c" d="M 488.5,62.5 C 485.482,62.6646 482.482,62.498 479.5,62C 482.696,61.1955 485.696,61.3622 488.5,62.5 Z"/></g>
<g><path style="opacity:0.008" fill="#1e4d6c" d="M 559.5,61.5 C 560.833,62.1667 560.833,62.1667 559.5,61.5 Z"/></g>
<g><path style="opacity:0.008" fill="#1e4d6c" d="M 561.5,62.5 C 562.251,61.4265 563.251,61.2599 564.5,62C 563.552,62.4828 562.552,62.6495 561.5,62.5 Z"/></g>
<g><path style="opacity:0.008" fill="#1e4d6c" d="M 23.5,63.5 C 23.5,63.1667 23.5,62.8333 23.5,62.5C 26.1667,62.8333 26.1667,63.1667 23.5,63.5 Z"/></g>
<g><path style="opacity:0.008" fill="#1e4d6c" d="M 86.5,63.5 C 89.6399,62.3592 92.9733,62.1925 96.5,63C 93.1832,63.4983 89.8499,63.665 86.5,63.5 Z"/></g>
<g><path style="opacity:0.008" fill="#1e4d6c" d="M 110.5,63.5 C 107.482,63.6646 104.482,63.498 101.5,63C 104.696,62.1955 107.696,62.3622 110.5,63.5 Z"/></g>
<g><path style="opacity:0.008" fill="#1e4d6c" d="M 457.5,62.5 C 456.054,63.6129 454.387,63.7796 452.5,63C 454.134,62.5065 455.801,62.3398 457.5,62.5 Z"/></g>
<g><path style="opacity:0.008" fill="#1e4d6c" d="M 468.5,63.5 C 468.5,63.1667 468.5,62.8333 468.5,62.5C 473.833,62.8333 473.833,63.1667 468.5,63.5 Z"/></g>
<g><path style="opacity:0.008" fill="#1e4d6c" d="M 474.5,63.5 C 475.601,62.4017 476.934,62.235 478.5,63C 477.207,63.49 475.873,63.6567 474.5,63.5 Z"/></g>
<g><path style="opacity:0.008" fill="#1e4d6c" d="M 553.5,63.5 C 553.5,63.1667 553.5,62.8333 553.5,62.5C 560.167,62.8333 560.167,63.1667 553.5,63.5 Z"/></g>
<g><path style="opacity:0.745" fill="#1e4166" d="M 54.5,60.5 C 57.9377,61.6862 61.6044,62.3528 65.5,62.5C 72.1524,61.5563 78.819,61.3896 85.5,62C 81.5,62.6667 81.5,63.3333 85.5,64C 89.7533,64.1998 93.92,64.6998 98,65.5C 102.066,64.5363 106.233,64.203 110.5,64.5C 111.29,65.4013 112.29,66.0679 113.5,66.5C 111.708,67.3091 109.708,67.8091 107.5,68C 108.833,68.3333 110.167,68.6667 111.5,69C 108.833,69.3333 106.167,69.6667 103.5,70C 107.232,70.9717 106.899,71.4717 102.5,71.5C 97.226,71.313 97.226,70.813 102.5,70C 100.414,69.6847 98.4144,69.1847 96.5,68.5C 95.8333,67.1667 95.1667,67.1667 94.5,68.5C 90.1186,68.3718 85.7853,68.7051 81.5,69.5C 77.6612,68.3533 73.6612,68.3533 69.5,69.5C 68.5,69.3333 67.5,69.1667 66.5,69C 67.8333,68.6667 69.1667,68.3333 70.5,68C 68.5273,67.5045 66.5273,67.3379 64.5,67.5C 62.7816,68.224 60.9483,68.8906 59,69.5C 56.3033,69.1209 53.4699,68.4543 50.5,67.5C 53.1873,67.6641 55.854,67.4974 58.5,67C 53.8627,66.1706 49.196,65.6706 44.5,65.5C 38.923,65.1437 33.5896,64.1437 28.5,62.5C 32.7016,62.8168 36.7016,62.4834 40.5,61.5C 45.1188,59.6455 49.7854,59.3122 54.5,60.5 Z M 64.5,67.5 C 57.9567,67.4565 57.9567,66.7898 64.5,65.5C 65.463,65.9698 65.463,66.6365 64.5,67.5 Z"/></g>
<g><path style="opacity:0.008" fill="#1e4d6c" d="M 110.5,63.5 C 111.833,64.1667 111.833,64.1667 110.5,63.5 Z"/></g>
<g><path style="opacity:0.008" fill="#1e4d6c" d="M 424.5,64.5 C 428.981,63.3516 433.648,63.1849 438.5,64C 433.845,64.4992 429.179,64.6658 424.5,64.5 Z"/></g>
<g><path style="opacity:0.008" fill="#1e4d6c" d="M 122.5,65.5 C 123.946,64.3871 125.613,64.2204 127.5,65C 125.866,65.4935 124.199,65.6602 122.5,65.5 Z"/></g>
<g><path style="opacity:0.008" fill="#1e4d6c" d="M 138.5,65.5 C 136.143,65.6633 133.81,65.4966 131.5,65C 134.039,64.2042 136.372,64.3709 138.5,65.5 Z"/></g>
<g><path style="opacity:0.008" fill="#1e4d6c" d="M 145.5,64.5 C 146.833,65.1667 146.833,65.1667 145.5,64.5 Z"/></g>
<g><path style="opacity:0.008" fill="#1e4d6c" d="M 411.5,65.5 C 408.813,65.6641 406.146,65.4974 403.5,65C 406.367,64.1993 409.034,64.3659 411.5,65.5 Z"/></g>
<g><path style="opacity:0.008" fill="#1e4d6c" d="M 441.5,65.5 C 442.601,64.4017 443.934,64.235 445.5,65C 444.207,65.49 442.873,65.6567 441.5,65.5 Z"/></g>
<g><path style="opacity:0.008" fill="#1e4d6c" d="M 450.5,66.5 C 447.999,66.4891 447.832,65.8224 450,64.5C 450.464,65.0944 450.631,65.7611 450.5,66.5 Z"/></g>
<g><path style="opacity:0.008" fill="#1e4d6c" d="M 530.5,65.5 C 530.5,65.1667 530.5,64.8333 530.5,64.5C 535.833,64.8333 535.833,65.1667 530.5,65.5 Z"/></g>
<g><path style="opacity:0.008" fill="#1e4d6c" d="M 44.5,65.5 C 40.0189,66.6484 35.3522,66.8151 30.5,66C 35.1548,65.5008 39.8215,65.3342 44.5,65.5 Z"/></g>
<g><path style="opacity:0.008" fill="#1e4d6c" d="M 113.5,65.5 C 114.833,66.1667 114.833,66.1667 113.5,65.5 Z"/></g>
<g><path style="opacity:0.008" fill="#1e4d6c" d="M 128.5,66.5 C 128.897,65.475 129.563,65.3083 130.5,66C 129.906,66.4643 129.239,66.631 128.5,66.5 Z"/></g>
<g><path style="opacity:0.008" fill="#1e4d6c" d="M 138.5,66.5 C 138.5,66.1667 138.5,65.8333 138.5,65.5C 145.167,65.8333 145.167,66.1667 138.5,66.5 Z"/></g>
<g><path style="opacity:0.008" fill="#1e4d6c" d="M 148.5,66.5 C 150.288,65.3775 152.288,65.2109 154.5,66C 152.527,66.4955 150.527,66.6621 148.5,66.5 Z"/></g>
<g><path style="opacity:0.008" fill="#1e4d6c" d="M 172.5,66.5 C 167.821,66.6658 163.155,66.4992 158.5,66C 163.352,65.1849 168.019,65.3516 172.5,66.5 Z"/></g>
<g><path style="opacity:0.008" fill="#1e4d6c" d="M 398.5,66.5 C 396.473,66.6621 394.473,66.4955 392.5,66C 394.712,65.2109 396.712,65.3775 398.5,66.5 Z"/></g>
<g><path style="opacity:0.008" fill="#1e4d6c" d="M 411.5,65.5 C 412.833,66.1667 412.833,66.1667 411.5,65.5 Z"/></g>
<g><path style="opacity:0.918" fill="#1d4369" d="M 555.5,55.5 C 561.529,55.4255 567.529,55.7588 573.5,56.5C 573.649,57.552 573.483,58.552 573,59.5C 568.654,59.949 564.154,59.949 559.5,59.5C 558.537,59.9698 558.537,60.6365 559.5,61.5C 557.265,61.2053 555.265,61.5386 553.5,62.5C 542.833,62.8333 542.833,63.1667 553.5,63.5C 545.828,64.0692 538.161,64.4025 530.5,64.5C 526.202,65.1995 521.869,65.5328 517.5,65.5C 516.5,64.1667 515.5,64.1667 514.5,65.5C 511.873,66.1049 509.207,66.6049 506.5,67C 508.5,67.3333 510.5,67.6667 512.5,68C 509.167,68.3333 505.833,68.6667 502.5,69C 503.833,69.3333 505.167,69.6667 506.5,70C 504.5,70.6667 502.5,70.6667 500.5,70C 501.524,68.6329 501.024,67.7995 499,67.5C 490.199,69.1238 481.365,68.7905 472.5,66.5C 470.224,67.2132 467.891,67.7132 465.5,68C 467.5,68.3333 469.5,68.6667 471.5,69C 468.167,69.3333 464.833,69.6667 461.5,70C 465.414,70.8966 465.248,71.3966 461,71.5C 456.752,71.3966 456.586,70.8966 460.5,70C 459.128,69.5983 457.795,69.0983 456.5,68.5C 455.549,69.3256 454.549,69.4922 453.5,69C 452.167,68.3333 452.167,67.6667 453.5,67C 452.906,66.5357 452.239,66.369 451.5,66.5C 452.152,65.2749 453.319,64.6083 455,64.5C 459.47,63.7363 463.97,63.403 468.5,63.5C 475.209,64.6186 481.875,64.2853 488.5,62.5C 495.971,63.2022 503.304,62.8689 510.5,61.5C 513.941,61.6989 517.274,61.1989 520.5,60C 519.5,59.6667 518.5,59.3333 517.5,59C 521.706,58.7392 525.873,58.2392 530,57.5C 531,57.8333 532,58.1667 533,58.5C 536.437,57.5126 539.937,56.846 543.5,56.5C 545.32,56.6493 546.82,57.3159 548,58.5C 548.667,55.8333 549.333,55.8333 550,58.5C 551.719,57.1312 553.552,56.1312 555.5,55.5 Z M 550.5,59.5 C 547.56,60.8299 544.56,60.6633 541.5,59C 544.507,58.6987 547.507,58.8654 550.5,59.5 Z"/></g>
<g><path style="opacity:0.008" fill="#1e4d6c" d="M 514.5,65.5 C 515.5,65.5 516.5,65.5 517.5,65.5C 516.5,66.8333 515.5,66.8333 514.5,65.5 Z"/></g>
<g><path style="opacity:0.008" fill="#1e4d6c" d="M 527.5,66.5 C 528.209,65.596 529.209,65.2627 530.5,65.5C 529.791,66.404 528.791,66.7373 527.5,66.5 Z"/></g>
<g><path style="opacity:0.008" fill="#1e4d6c" d="M 50.5,67.5 C 49.448,67.6495 48.448,67.4828 47.5,67C 48.7494,66.2599 49.7494,66.4265 50.5,67.5 Z"/></g>
<g><path style="opacity:0.008" fill="#1e4d6c" d="M 116.5,67.5 C 115.833,66.1667 115.833,66.1667 116.5,67.5 Z"/></g>
<g><path style="opacity:0.008" fill="#1e4d6c" d="M 172.5,67.5 C 172.5,67.1667 172.5,66.8333 172.5,66.5C 176.5,66.8333 176.5,67.1667 172.5,67.5 Z"/></g>
<g><path style="opacity:0.008" fill="#1e4d6c" d="M 186.5,67.5 C 190.311,66.3547 194.311,66.1881 198.5,67C 194.514,67.4988 190.514,67.6655 186.5,67.5 Z"/></g>
<g><path style="opacity:0.008" fill="#1e4d6c" d="M 203.5,67.5 C 204.946,66.3871 206.613,66.2204 208.5,67C 206.866,67.4935 205.199,67.6602 203.5,67.5 Z"/></g>
<g><path style="opacity:0.008" fill="#1e4d6c" d="M 216.5,67.5 C 215.448,67.6495 214.448,67.4828 213.5,67C 214.749,66.2599 215.749,66.4265 216.5,67.5 Z"/></g>
<g><path style="opacity:0.008" fill="#1e4d6c" d="M 221.5,67.5 C 221.897,66.475 222.563,66.3083 223.5,67C 222.906,67.4643 222.239,67.631 221.5,67.5 Z"/></g>
<g><path style="opacity:0.008" fill="#1e4d6c" d="M 273.5,67.5 C 275.628,66.3709 277.961,66.2042 280.5,67C 278.19,67.4966 275.857,67.6633 273.5,67.5 Z"/></g>
<g><path style="opacity:0.008" fill="#1e4d6c" d="M 296.5,67.5 C 299.64,66.3592 302.973,66.1925 306.5,67C 303.183,67.4983 299.85,67.665 296.5,67.5 Z"/></g>
<g><path style="opacity:0.008" fill="#1e4d6c" d="M 314.5,67.5 C 316.628,66.3709 318.961,66.2042 321.5,67C 319.19,67.4966 316.857,67.6633 314.5,67.5 Z"/></g>
<g><path style="opacity:0.008" fill="#1e4d6c" d="M 345.5,66.5 C 346.833,67.1667 346.833,67.1667 345.5,66.5 Z"/></g>
<g><path style="opacity:0.008" fill="#1e4d6c" d="M 368.5,67.5 C 364.818,67.6653 361.152,67.4986 357.5,67C 361.358,66.1901 365.024,66.3567 368.5,67.5 Z"/></g>
<g><path style="opacity:0.008" fill="#1e4d6c" d="M 373.5,67.5 C 378.65,66.3493 383.984,66.1826 389.5,67C 384.177,67.4994 378.844,67.666 373.5,67.5 Z"/></g>
<g><path style="opacity:0.008" fill="#1e4d6c" d="M 414.5,67.5 C 413.833,66.1667 413.833,66.1667 414.5,67.5 Z"/></g>
<g><path style="opacity:0.008" fill="#1e4d6c" d="M 419.5,66.5 C 420.833,67.1667 420.833,67.1667 419.5,66.5 Z"/></g>
<g><path style="opacity:0.008" fill="#1e4d6c" d="M 450.5,66.5 C 450.833,66.5 451.167,66.5 451.5,66.5C 451.315,67.1701 450.981,67.1701 450.5,66.5 Z"/></g>
<g><path style="opacity:0.008" fill="#1e4d6c" d="M 527.5,66.5 C 524.696,67.6378 521.696,67.8045 518.5,67C 521.482,66.502 524.482,66.3354 527.5,66.5 Z"/></g>
<g><path style="opacity:0.008" fill="#1e4d6c" d="M 116.5,67.5 C 117.167,67.5 117.833,67.5 118.5,67.5C 118.5,68.1667 118.833,68.5 119.5,68.5C 119.631,69.2389 119.464,69.9056 119,70.5C 117.583,69.9221 116.75,68.9221 116.5,67.5 Z"/></g>
<g><path style="opacity:0.008" fill="#1e4d6c" d="M 216.5,68.5 C 216.5,68.1667 216.5,67.8333 216.5,67.5C 221.833,67.8333 221.833,68.1667 216.5,68.5 Z"/></g>
<g><path style="opacity:0.008" fill="#1e4d6c" d="M 225.5,68.5 C 227.288,67.3775 229.288,67.2109 231.5,68C 229.527,68.4955 227.527,68.6621 225.5,68.5 Z"/></g>
<g><path style="opacity:0.008" fill="#1e4d6c" d="M 232.5,67.5 C 233.833,68.1667 233.833,68.1667 232.5,67.5 Z"/></g>
<g><path style="opacity:0.008" fill="#1e4d6c" d="M 234.5,68.5 C 236.628,67.3709 238.961,67.2042 241.5,68C 239.19,68.4966 236.857,68.6633 234.5,68.5 Z"/></g>
<g><path style="opacity:0.008" fill="#1e4d6c" d="M 252.5,68.5 C 257.316,67.3503 262.316,67.1837 267.5,68C 262.511,68.4993 257.511,68.6659 252.5,68.5 Z"/></g>
<g><path style="opacity:0.008" fill="#1e4d6c" d="M 270.5,68.5 C 270.897,67.475 271.563,67.3083 272.5,68C 271.906,68.4643 271.239,68.631 270.5,68.5 Z"/></g>
<g><path style="opacity:0.008" fill="#1e4d6c" d="M 307.5,67.5 C 308.833,68.1667 308.833,68.1667 307.5,67.5 Z"/></g>
<g><path style="opacity:0.008" fill="#1e4d6c" d="M 324.5,68.5 C 330.653,67.3467 336.986,67.18 343.5,68C 337.175,68.4995 330.842,68.6662 324.5,68.5 Z"/></g>
<g><path style="opacity:0.008" fill="#1e4d6c" d="M 347.5,68.5 C 348.946,67.3871 350.613,67.2204 352.5,68C 350.866,68.4935 349.199,68.6602 347.5,68.5 Z"/></g>
<g><path style="opacity:0.008" fill="#1e4d6c" d="M 368.5,68.5 C 368.5,68.1667 368.5,67.8333 368.5,67.5C 372.5,67.8333 372.5,68.1667 368.5,68.5 Z"/></g>
<g><path style="opacity:0.008" fill="#1e4d6c" d="M 414.5,67.5 C 415.833,68.1667 415.833,68.1667 414.5,67.5 Z"/></g>
<g><path style="opacity:0.008" fill="#1e4d6c" d="M 448.5,67.5 C 449.525,67.8966 449.692,68.5632 449,69.5C 448.536,68.9056 448.369,68.2389 448.5,67.5 Z"/></g>
<g><path style="opacity:0.008" fill="#1e4d6c" d="M 94.5,69.5 C 94.5,69.1667 94.5,68.8333 94.5,68.5C 95.1667,68.5 95.8333,68.5 96.5,68.5C 96.1583,69.3382 95.4916,69.6716 94.5,69.5 Z"/></g>
<g><path style="opacity:0.008" fill="#1e4d6c" d="M 252.5,68.5 C 252.103,69.525 251.437,69.6917 250.5,69C 251.094,68.5357 251.761,68.369 252.5,68.5 Z"/></g>
<g><path style="opacity:0.008" fill="#1e4d6c" d="M 269.5,69.5 C 268.833,68.1667 268.833,68.1667 269.5,69.5 Z"/></g>
<g><path style="opacity:0.008" fill="#1e4d6c" d="M 286.5,68.5 C 287.833,69.1667 287.833,69.1667 286.5,68.5 Z"/></g>
<g><path style="opacity:0.008" fill="#1e4d6c" d="M 416.5,68.5 C 417.525,68.8966 417.692,69.5632 417,70.5C 416.536,69.9056 416.369,69.2389 416.5,68.5 Z"/></g>
<g><path style="opacity:0.937" fill="#1d456c" d="M 428.5,72.5 C 426.019,72.6766 424.186,71.6766 423,69.5C 422.667,69.8333 422.333,70.1667 422,70.5C 421.135,68.1122 421.968,66.6122 424.5,66C 432.208,65.2942 439.875,65.6275 447.5,67C 446.359,67.7412 446.359,68.5745 447.5,69.5C 446.271,70.2811 444.938,70.7811 443.5,71C 444.5,71.3333 445.5,71.6667 446.5,72C 443.366,73.2519 440.366,73.2519 437.5,72C 443.864,71.0188 443.531,70.5188 436.5,70.5C 436.5,71.5 436.5,72.5 436.5,73.5C 433.615,73.8064 430.948,73.4731 428.5,72.5 Z M 428.5,72.5 C 427.737,71.7321 426.737,71.2321 425.5,71C 428.833,70.8859 432.166,71.2192 435.5,72C 433.19,72.4966 430.857,72.6633 428.5,72.5 Z"/></g>
<g><path style="opacity:0.008" fill="#1e4d6c" d="M 478.5,69.5 C 477.448,69.6495 476.448,69.4828 475.5,69C 476.749,68.2599 477.749,68.4265 478.5,69.5 Z"/></g>
<g><path style="opacity:0.008" fill="#1e4d6c" d="M 492.5,68.5 C 493.833,69.1667 493.833,69.1667 492.5,68.5 Z"/></g>
<g><path style="opacity:0.008" fill="#1e4d6c" d="M 81.5,69.5 C 80.3991,70.5983 79.0657,70.765 77.5,70C 78.7932,69.51 80.1266,69.3433 81.5,69.5 Z"/></g>
<g><path style="opacity:0.008" fill="#1e4d6c" d="M 94.5,69.5 C 92.3718,70.6291 90.0385,70.7958 87.5,70C 89.8098,69.5034 92.1432,69.3367 94.5,69.5 Z"/></g>
<g><path style="opacity:0.478" fill="#1e4369" d="M 128.5,66.5 C 131.613,66.849 134.946,66.849 138.5,66.5C 141.668,67.4435 145.001,67.4435 148.5,66.5C 151.228,67.2052 154.061,67.8719 157,68.5C 162.072,67.5286 167.238,67.1953 172.5,67.5C 176.989,68.2174 181.656,68.2174 186.5,67.5C 191.122,67.904 195.622,68.904 200,70.5C 200.333,69.8333 200.667,69.1667 201,68.5C 202.628,69.0102 204.461,69.0102 206.5,68.5C 207.833,68.8333 209.167,69.1667 210.5,69.5C 210.137,70.1835 209.804,70.8501 209.5,71.5C 208.167,71.8333 208.167,72.1667 209.5,72.5C 207.19,73.1638 204.69,73.4971 202,73.5C 193.503,72.9446 185.003,72.4446 176.5,72C 177.016,69.9672 176.35,69.9672 174.5,72C 170.848,72.4986 167.182,72.6653 163.5,72.5C 160.713,71.5233 157.713,71.19 154.5,71.5C 153.5,70.1667 152.5,70.1667 151.5,71.5C 149.599,72.9306 147.432,73.9306 145,74.5C 142.723,73.8828 140.556,73.2161 138.5,72.5C 140.857,72.6633 143.19,72.4966 145.5,72C 141.285,71.4047 137.119,70.5713 133,69.5C 128.229,71.1699 123.729,70.8365 119.5,68.5C 118.833,68.5 118.5,68.1667 118.5,67.5C 118.811,66.5222 119.478,65.8555 120.5,65.5C 123.084,66.3928 125.751,66.7261 128.5,66.5 Z"/></g>
<g><path style="opacity:0.008" fill="#1e4d6c" d="M 243.5,72.5 C 243.351,71.448 243.517,70.448 244,69.5C 244.74,70.7494 244.573,71.7494 243.5,72.5 Z"/></g>
<g><path style="opacity:0.031" fill="#364b60" d="M 310.5,70.5 C 310.783,69.7109 311.283,69.0442 312,68.5C 312.528,69.816 312.028,70.4827 310.5,70.5 Z"/></g>
<g><path style="opacity:0.008" fill="#1e4d6c" d="M 478.5,69.5 C 482.514,69.3345 486.514,69.5012 490.5,70C 486.311,70.8119 482.311,70.6453 478.5,69.5 Z"/></g>
<g><path style="opacity:0.008" fill="#1e4d6c" d="M 107.5,70.5 C 108.833,71.1667 108.833,71.1667 107.5,70.5 Z"/></g>
<g><path style="opacity:0.008" fill="#1e4d6c" d="M 248.5,72.5 C 246.017,72.27 245.517,71.6034 247,70.5C 248.03,70.8361 248.53,71.5028 248.5,72.5 Z"/></g>
<g><path style="opacity:0.008" fill="#1e4d6c" d="M 284.5,70.5 C 285.833,71.1667 285.833,71.1667 284.5,70.5 Z"/></g>
<g><path style="opacity:0.008" fill="#1e4d6c" d="M 289.5,70.5 C 290.833,71.1667 290.833,71.1667 289.5,70.5 Z"/></g>
<g><path style="opacity:0.412" fill="#1d4369" d="M 331.5,74.5 C 328.834,74.02 326.334,73.02 324,71.5C 323.768,72.7375 323.268,73.7375 322.5,74.5C 320.107,73.79 317.607,73.1233 315,72.5C 313.116,69.4196 314.283,68.0863 318.5,68.5C 327.533,69.7094 336.533,69.7094 345.5,68.5C 348.177,69.0742 350.843,69.7408 353.5,70.5C 353.833,71.1667 354.167,71.8333 354.5,72.5C 349.464,73.3248 344.464,74.3248 339.5,75.5C 334.226,75.313 334.226,74.813 339.5,74C 336.739,73.2782 334.073,73.4448 331.5,74.5 Z"/></g>
<g><path style="opacity:0.008" fill="#1e4d6c" d="M 138.5,72.5 C 137.761,72.631 137.094,72.4643 136.5,72C 137.437,71.3083 138.103,71.475 138.5,72.5 Z"/></g>
<g><path style="opacity:0.008" fill="#1e4d6c" d="M 151.5,71.5 C 152.5,71.5 153.5,71.5 154.5,71.5C 153.5,72.8333 152.5,72.8333 151.5,71.5 Z"/></g>
<g><path style="opacity:0.008" fill="#1e4d6c" d="M 289.5,71.5 C 289.631,72.2389 289.464,72.9056 289,73.5C 288.308,72.5632 288.475,71.8966 289.5,71.5 Z"/></g>
<g><path style="opacity:0.776" fill="#1c466e" d="M 307.5,68.5 C 308.29,69.4013 309.29,70.0679 310.5,70.5C 311.209,71.404 312.209,71.7373 313.5,71.5C 313.649,72.552 313.483,73.552 313,74.5C 308.591,73.4689 304.091,72.8022 299.5,72.5C 299.5,73.5 299.5,74.5 299.5,75.5C 297.418,75.528 295.584,74.8613 294,73.5C 292.817,74.731 291.651,74.731 290.5,73.5C 292.283,71.7684 294.283,70.2684 296.5,69C 300.152,68.5014 303.818,68.3347 307.5,68.5 Z"/></g>
<g><path style="opacity:0.357" fill="#1e4368" d="M 398.5,66.5 C 402.833,66.5 407.167,66.5 411.5,66.5C 411.973,67.9063 412.973,68.573 414.5,68.5C 414.804,69.1499 415.137,69.8165 415.5,70.5C 412.914,71.48 410.247,71.8134 407.5,71.5C 407.44,70.9569 407.107,70.6236 406.5,70.5C 403.082,72.1519 399.415,72.9853 395.5,73C 398.5,73.3333 401.5,73.6667 404.5,74C 399.167,74.6667 393.833,74.6667 388.5,74C 388.833,73.6667 389.167,73.3333 389.5,73C 387.797,72.2547 386.13,71.4214 384.5,70.5C 383.833,70.6667 383.167,70.8333 382.5,71C 383.5,71.3333 384.5,71.6667 385.5,72C 383.5,72.3333 381.5,72.6667 379.5,73C 383.414,73.8966 383.248,74.3966 379,74.5C 377.833,74.3333 376.667,74.1667 375.5,74C 376.172,72.4207 375.505,71.254 373.5,70.5C 373.5,69.8333 373.167,69.5 372.5,69.5C 382.692,68.1938 393.025,67.6938 403.5,68C 401.618,67.8019 399.952,67.3019 398.5,66.5 Z"/></g>
<g><path style="opacity:0.008" fill="#1e4d6c" d="M 407.5,71.5 C 406.833,72.1667 406.833,72.1667 407.5,71.5 Z"/></g>
<g><path style="opacity:0.008" fill="#1e4d6c" d="M 156.5,73.5 C 156.897,72.475 157.563,72.3083 158.5,73C 157.906,73.4643 157.239,73.631 156.5,73.5 Z"/></g>
<g><path style="opacity:0.008" fill="#1e4d6c" d="M 163.5,72.5 C 162.749,73.5735 161.749,73.7401 160.5,73C 161.448,72.5172 162.448,72.3505 163.5,72.5 Z"/></g>
<g><path style="opacity:0.231" fill="#1f4368" d="M 216.5,68.5 C 224.584,69.0052 232.917,69.5052 241.5,70C 242.252,70.6708 242.586,71.5041 242.5,72.5C 241.209,72.2627 240.209,72.596 239.5,73.5C 234.167,73.8333 234.167,74.1667 239.5,74.5C 235.019,75.6484 230.352,75.8151 225.5,75C 227.5,74.6667 229.5,74.3333 231.5,74C 229.236,73.7638 227.069,73.2638 225,72.5C 224.667,73.1667 224.333,73.8333 224,74.5C 219.169,73.8079 214.336,73.1413 209.5,72.5C 209.5,72.1667 209.5,71.8333 209.5,71.5C 211.048,71.1788 211.715,70.1788 211.5,68.5C 213.167,68.5 214.833,68.5 216.5,68.5 Z"/></g>
<g><path style="opacity:0.008" fill="#1e4d6c" d="M 242.5,72.5 C 242.833,72.5 243.167,72.5 243.5,72.5C 243.315,73.1701 242.981,73.1701 242.5,72.5 Z"/></g>
<g><path style="opacity:0.008" fill="#1e4d6c" d="M 248.5,72.5 C 248.833,72.5 249.167,72.5 249.5,72.5C 249.315,73.1701 248.981,73.1701 248.5,72.5 Z"/></g>
<g><path style="opacity:0.647" fill="#1c436b" d="M 284.5,70.5 C 282.914,71.1481 281.247,71.6481 279.5,72C 280.5,72.3333 281.5,72.6667 282.5,73C 280.579,73.3603 278.912,74.1936 277.5,75.5C 277.167,74.8333 276.833,74.1667 276.5,73.5C 275.468,75.0396 274.135,75.5396 272.5,75C 273.167,74.6667 273.833,74.3333 274.5,74C 273.207,73.51 271.873,73.3433 270.5,73.5C 270.167,72.1667 269.833,72.1667 269.5,73.5C 266.833,73.8333 266.833,74.1667 269.5,74.5C 267.712,75.6225 265.712,75.7891 263.5,75C 264.696,74.3457 264.696,73.8457 263.5,73.5C 259.605,74.9803 255.605,75.4803 251.5,75C 253.167,74.6667 254.833,74.3333 256.5,74C 254.08,73.7096 251.746,73.2096 249.5,72.5C 250.23,70.955 251.563,70.1216 253.5,70C 259.074,69.6375 264.407,69.4709 269.5,69.5C 272.647,69.0774 275.814,68.7441 279,68.5C 281.295,68.5465 283.129,69.2132 284.5,70.5 Z"/></g>
<g><path style="opacity:0.196" fill="#214568" d="M 368.5,68.5 C 369.568,69.4345 370.901,69.7678 372.5,69.5C 373.167,69.5 373.5,69.8333 373.5,70.5C 373.5,71.5 373.5,72.5 373.5,73.5C 371.143,73.3367 368.81,73.5034 366.5,74C 368.5,74.3333 370.5,74.6667 372.5,75C 367.5,75.6667 362.5,75.6667 357.5,75C 360.167,74.6667 362.833,74.3333 365.5,74C 362.443,73.7435 359.443,73.2435 356.5,72.5C 355.571,71.3112 355.238,69.9778 355.5,68.5C 359.833,68.5 364.167,68.5 368.5,68.5 Z"/></g>
<g><path style="opacity:0.008" fill="#1e4d6c" d="M 408.5,73.5 C 410.288,72.3775 412.288,72.2109 414.5,73C 412.527,73.4955 410.527,73.6621 408.5,73.5 Z"/></g>
<g><path style="opacity:0.008" fill="#1e4d6c" d="M 167.5,74.5 C 169.288,73.3775 171.288,73.2109 173.5,74C 171.527,74.4955 169.527,74.6621 167.5,74.5 Z"/></g>
<g><path style="opacity:0.008" fill="#1e4d6c" d="M 178.5,74.5 C 181.304,73.3622 184.304,73.1955 187.5,74C 184.518,74.498 181.518,74.6646 178.5,74.5 Z"/></g>
<g><path style="opacity:0.008" fill="#1e4d6c" d="M 190.5,74.5 C 191.251,73.4265 192.251,73.2599 193.5,74C 192.552,74.4828 191.552,74.6495 190.5,74.5 Z"/></g>
<g><path style="opacity:0.008" fill="#1e4d6c" d="M 239.5,74.5 C 239.5,74.1667 239.5,73.8333 239.5,73.5C 242.167,73.8333 242.167,74.1667 239.5,74.5 Z"/></g>
<g><path style="opacity:0.008" fill="#1e4d6c" d="M 269.5,73.5 C 269.833,73.5 270.167,73.5 270.5,73.5C 270.315,74.1701 269.981,74.1701 269.5,73.5 Z"/></g>
<g><path style="opacity:0.008" fill="#1e4d6c" d="M 194.5,75.5 C 198.646,74.353 202.98,74.1864 207.5,75C 203.179,75.499 198.846,75.6657 194.5,75.5 Z"/></g>
<g><path style="opacity:0.008" fill="#1e4d6c" d="M 211.5,75.5 C 213.288,74.3775 215.288,74.2109 217.5,75C 215.527,75.4955 213.527,75.6621 211.5,75.5 Z"/></g>
<g><path style="opacity:0.008" fill="#1e4d6c" d="M 304.5,75.5 C 306.628,74.3709 308.961,74.2042 311.5,75C 309.19,75.4966 306.857,75.6633 304.5,75.5 Z"/></g>
<g><path style="opacity:0.008" fill="#1e4d6c" d="M 322.5,74.5 C 320.372,75.6291 318.039,75.7958 315.5,75C 317.81,74.5034 320.143,74.3367 322.5,74.5 Z"/></g>
<g><path style="opacity:0.008" fill="#1e4d6c" d="M 331.5,74.5 C 329.712,75.6225 327.712,75.7891 325.5,75C 327.473,74.5045 329.473,74.3379 331.5,74.5 Z"/></g>
<g><path style="opacity:0.008" fill="#1e4d6c" d="M 347.5,75.5 C 349.288,74.3775 351.288,74.2109 353.5,75C 351.527,75.4955 349.527,75.6621 347.5,75.5 Z"/></g>
<g><path style="opacity:0.008" fill="#1e4d6c" d="M 259.5,76.5 C 260.251,75.4265 261.251,75.2599 262.5,76C 261.552,76.4828 260.552,76.6495 259.5,76.5 Z"/></g>
<g><path style="opacity:0.008" fill="#1e4d6c" d="M 293.5,76.5 C 293.897,75.475 294.563,75.3083 295.5,76C 294.906,76.4643 294.239,76.631 293.5,76.5 Z"/></g>
</svg>
